<svg id="Layer_1" data-name="Layer 1" xmlns="http://www.w3.org/2000/svg" viewBox="0 0 105.04 33.64"><defs><style>.cls-1{fill:#30b76d;}.cls-2{fill:#87e0b3;}.cls-3{fill:#fff;}</style></defs><title>Artboard 93</title><rect class="cls-1" x="0.02" y="1.84" width="105" height="31.72" rx="8.85" transform="translate(0.03 -0.1) rotate(0.11)"/><rect class="cls-2" x="0.02" y="0.09" width="105" height="31.72" rx="5.62" transform="translate(0.03 -0.1) rotate(0.11)"/><path class="cls-3" d="M29.68,13.89a6,6,0,0,1-.2,1.41A13.11,13.11,0,0,1,28.94,17l-1,2.59a.48.48,0,0,1-.34.29,4.14,4.14,0,0,1-.86.06,4,4,0,0,1-.78-.05.22.22,0,0,1-.18-.22,1.33,1.33,0,0,1,.09-.37L27,16.52a9.34,9.34,0,0,0,.44-1.37,4.78,4.78,0,0,0,.15-1.08,1.41,1.41,0,0,0-.17-.78,1,1,0,0,0-.56-.41,3.67,3.67,0,0,0-1.06-.14H22.23c-.11,0-.18-.07-.23-.2a2.57,2.57,0,0,1-.06-.66,2.07,2.07,0,0,1,.07-.66c0-.13.11-.2.22-.2h3.71a6.42,6.42,0,0,1,2.15.3,2.27,2.27,0,0,1,1.21.93A3.15,3.15,0,0,1,29.68,13.89Zm-5.59,8.67c0,.12-.08.21-.23.26a2.55,2.55,0,0,1-.8.08,2.89,2.89,0,0,1-.81-.08c-.16-.05-.24-.14-.24-.26l0-7.5a.28.28,0,0,1,.23-.27,2.71,2.71,0,0,1,.81-.07,3.09,3.09,0,0,1,.81.07.28.28,0,0,1,.23.27Z"/><path class="cls-3" d="M33.29,19.6c0,.13-.07.22-.23.27a3,3,0,0,1-.8.07,3,3,0,0,1-.81-.07q-.24-.07-.24-.27l0-7.89a.67.67,0,0,1,.13-.43.59.59,0,0,1,.42-.18q.57-.06,1.35-.09c.52,0,1,0,1.55,0a6.31,6.31,0,0,1,2.53.41,2.41,2.41,0,0,1,1.26,1.25A6,6,0,0,1,38.83,15v4.66c0,.13-.08.21-.23.26a3,3,0,0,1-.81.07,2.92,2.92,0,0,1-.79-.07c-.16-.05-.24-.14-.24-.26V15.11a4.86,4.86,0,0,0-.16-1.45,1.2,1.2,0,0,0-.62-.72,2.89,2.89,0,0,0-1.34-.24c-.49,0-.93,0-1.33,0Z"/><path class="cls-3" d="M43.27,18.27a10.28,10.28,0,0,0,1.54.12,4,4,0,0,0,2.38-.63,3.77,3.77,0,0,0,1.36-2A11.5,11.5,0,0,0,49,12.37v-1c0-.12.08-.2.24-.26a3.13,3.13,0,0,1,.82-.07,2.92,2.92,0,0,1,.79.07.28.28,0,0,1,.22.26v1a11.48,11.48,0,0,1-.72,4.33,5.21,5.21,0,0,1-2.12,2.58,6.79,6.79,0,0,1-3.55.85A11.62,11.62,0,0,1,43.31,20a11.49,11.49,0,0,1-1.17-.16,1.2,1.2,0,0,1-.6-.26.72.72,0,0,1-.22-.48l-1-7.6a.43.43,0,0,1,0-.3c0-.07.13-.11.27-.14a3,3,0,0,1,.6,0,3.62,3.62,0,0,1,.89.07c.17.06.26.14.27.26l.44,3.27A2.68,2.68,0,0,0,44,14.45a1.13,1.13,0,0,0,.58-.72,5.44,5.44,0,0,0,.17-1.62v-.76a.27.27,0,0,1,.2-.26,2.67,2.67,0,0,1,.76-.07,2.58,2.58,0,0,1,.75.07.27.27,0,0,1,.21.26v.71a7.22,7.22,0,0,1-.36,2.56A2.29,2.29,0,0,1,45.2,15.9a4.72,4.72,0,0,1-2.22.3Z"/><path class="cls-3" d="M54.83,12.31a5.78,5.78,0,0,1,1.43-1.06,3.05,3.05,0,0,1,1.4-.35,2.61,2.61,0,0,1,1.61.47,2.78,2.78,0,0,1,.92,1.44,9.18,9.18,0,0,1,.29,2.52c0,.63,0,1.29-.06,2s-.09,1.37-.15,2a.72.72,0,0,1-.18.46.58.58,0,0,1-.44.16H56.12c-.11,0-.18-.07-.23-.2a2.61,2.61,0,0,1-.06-.67,2.62,2.62,0,0,1,.06-.66c0-.14.12-.2.21-.2h2.19c.07-1.05.11-2,.11-2.74a8.89,8.89,0,0,0-.12-1.66,1.57,1.57,0,0,0-.4-.85,1,1,0,0,0-.74-.26,1.73,1.73,0,0,0-.89.29,5.33,5.33,0,0,0-1,.95l-1,5.71c0,.12-.1.21-.27.26a3,3,0,0,1-.81.08,3.26,3.26,0,0,1-.79-.08c-.15-.05-.22-.14-.2-.27l.9-5.42a2.27,2.27,0,0,0,0-.58,2.66,2.66,0,0,0-.2-.61l-.48-1.16a2.88,2.88,0,0,1-.16-.48.26.26,0,0,1,.06-.22.57.57,0,0,1,.27-.11,4.89,4.89,0,0,1,.65,0,4.15,4.15,0,0,1,.89.06.48.48,0,0,1,.32.29Z"/><path class="cls-3" d="M71.44,19.69c0,.12-.08.21-.24.26a3.09,3.09,0,0,1-.81.07,2.9,2.9,0,0,1-.8-.08c-.15-.05-.23-.13-.23-.26V14.83a6.14,6.14,0,0,0-.07-1.14,1.05,1.05,0,0,0-.26-.54,1.07,1.07,0,0,0-.53-.28,4,4,0,0,0-1-.09c-.54,0-1.23,0-2,.09a.21.21,0,0,1-.23-.18,2.41,2.41,0,0,1-.06-.66,2.45,2.45,0,0,1,.06-.67.29.29,0,0,1,.25-.19c.72-.07,1.42-.11,2.09-.11a7.45,7.45,0,0,1,1.88.19,2.5,2.5,0,0,1,1.15.58,2.21,2.21,0,0,1,.61,1.07,6.74,6.74,0,0,1,.19,1.82Z"/><path class="cls-3" d="M75.49,19.69c0,.13-.08.21-.24.26a2.9,2.9,0,0,1-.8.08,2.85,2.85,0,0,1-.8-.08q-.24-.07-.24-.27l0-8.27c0-.12.08-.21.23-.26a3,3,0,0,1,.81-.08,3,3,0,0,1,.8.08c.16.06.23.15.23.27Z"/><path class="cls-3" d="M83.63,18.18a1.63,1.63,0,0,1,.19.37,1.07,1.07,0,0,1,.05.37v.39a1.37,1.37,0,0,1-.07.53.26.26,0,0,1-.27.15H77.05c-.1,0-.17-.06-.21-.2a2,2,0,0,1-.07-.64,2.65,2.65,0,0,1,.07-.68c0-.14.12-.21.22-.21h4.13l-4.39-6.4a.83.83,0,0,1-.16-.41c0-.13.08-.23.25-.28a2.72,2.72,0,0,1,.82-.09,4.73,4.73,0,0,1,.94.07.66.66,0,0,1,.39.27L81.2,14.7l.15-.16a2.78,2.78,0,0,0,.39-.54,1.75,1.75,0,0,0,.18-.56,5.58,5.58,0,0,0,.06-.8V11.43c0-.12.08-.21.24-.26a2.85,2.85,0,0,1,.8-.08,2.9,2.9,0,0,1,.8.08c.16.05.24.14.24.26v1.13A6.46,6.46,0,0,1,83.93,14a3.18,3.18,0,0,1-.4,1,7.83,7.83,0,0,1-.9,1.13l-.24.27Z"/></svg>