<svg id="Layer_1" data-name="Layer 1" xmlns="http://www.w3.org/2000/svg" viewBox="0 0 113.06 39.9"><defs><style>.cls-1{fill:#30b76d;}.cls-2{fill:#87e0b3;}.cls-3{fill:#fff;}</style></defs><title>Artboard 107</title><rect class="cls-1" x="0.03" y="2.17" width="113" height="37.63" rx="7.78" transform="translate(0.04 -0.11) rotate(0.11)"/><rect class="cls-2" x="0.03" y="0.1" width="113" height="37.63" rx="3.59" transform="translate(0.04 -0.11) rotate(0.11)"/><path class="cls-3" d="M21.05,15.53l-.12,1.28a3.19,3.19,0,0,0,0,.83.86.86,0,0,0,.21.44,2.69,2.69,0,0,0,.62.39l.24.14a.29.29,0,0,1,.14.32,3.08,3.08,0,0,1-.29.72,3.8,3.8,0,0,1-.38.6.32.32,0,0,1-.23.13.56.56,0,0,1-.25-.07l-.44-.22a4.7,4.7,0,0,1-.87-.55,2.22,2.22,0,0,1-.53-.62,2.14,2.14,0,0,1-.27-.82,5.67,5.67,0,0,1,0-1.17l.22-2.58a.73.73,0,0,1,.17-.48.62.62,0,0,1,.46-.16h2.82a7.18,7.18,0,0,1,1.92.21,2.41,2.41,0,0,1,1.16.68,2.61,2.61,0,0,1,.59,1.2,8.23,8.23,0,0,1,.16,1.87v8.21c0,.13-.08.22-.24.28a3.23,3.23,0,0,1-.85.08,3.18,3.18,0,0,1-.85-.08c-.16-.06-.24-.15-.24-.28V17.81a5.19,5.19,0,0,0-.14-1.44,1,1,0,0,0-.51-.66,2.65,2.65,0,0,0-1.12-.18Z"/><path class="cls-3" d="M28,15.54q-.16,0-.24-.21a2.94,2.94,0,0,1-.06-.7,2.29,2.29,0,0,1,.07-.69c0-.14.12-.21.23-.21h4.11a7.11,7.11,0,0,1,2.79.47,3.08,3.08,0,0,1,1.58,1.43A5.69,5.69,0,0,1,37,18.27a6.56,6.56,0,0,1-.53,2.7,3.77,3.77,0,0,1-1.52,1.72,4.64,4.64,0,0,1-2.4.58,4.87,4.87,0,0,1-2.33-.52,3.22,3.22,0,0,1-1.37-1.54,6.5,6.5,0,0,1-.45-2.59,6.3,6.3,0,0,1,.75-3.08Zm3.39,0a5.69,5.69,0,0,0-.75,2.94,5.5,5.5,0,0,0,.21,1.66,1.85,1.85,0,0,0,.66,1,1.83,1.83,0,0,0,1.13.33,1.85,1.85,0,0,0,1.13-.35,2.17,2.17,0,0,0,.72-1,5.41,5.41,0,0,0,.25-1.68,4.2,4.2,0,0,0-.27-1.68,1.74,1.74,0,0,0-.86-.89,3.88,3.88,0,0,0-1.6-.27Z"/><path class="cls-3" d="M40.8,22.78c0,.14-.08.23-.25.28a2.77,2.77,0,0,1-.84.08,3.29,3.29,0,0,1-.85-.08.3.3,0,0,1-.25-.28l0-8.72c0-.13.08-.22.25-.28a3.29,3.29,0,0,1,.85-.08,2.69,2.69,0,0,1,.84.09c.17.05.25.14.25.27Z"/><path class="cls-3" d="M50.8,22.81c0,.14-.08.23-.25.28a3.36,3.36,0,0,1-.84.07,3.29,3.29,0,0,1-.85-.08c-.17,0-.25-.14-.25-.27V18.05a5.32,5.32,0,0,0-.12-1.28,1.41,1.41,0,0,0-.4-.71,1.66,1.66,0,0,0-.74-.37,5.74,5.74,0,0,0-1.23-.11h-3c-.11,0-.19-.07-.23-.21a2.38,2.38,0,0,1-.07-.69,2.32,2.32,0,0,1,.07-.7.24.24,0,0,1,.24-.21h3.12a9,9,0,0,1,2.19.22,3.2,3.2,0,0,1,1.37.67,2.77,2.77,0,0,1,.74,1.22,7.33,7.33,0,0,1,.23,2Zm-5.67,0c0,.14-.09.23-.25.28a4.56,4.56,0,0,1-1.7,0c-.16-.06-.25-.15-.24-.28V18a.32.32,0,0,1,.25-.28,3.4,3.4,0,0,1,.85-.07,2.89,2.89,0,0,1,.85.08c.16.05.25.14.25.28Z"/><path class="cls-3" d="M55.08,22.81c0,.14-.08.23-.25.28a3.25,3.25,0,0,1-.84.08,3.29,3.29,0,0,1-.85-.08c-.17-.06-.25-.15-.25-.28l0-8.72c0-.13.08-.22.25-.28a4.5,4.5,0,0,1,1.69,0c.16.06.25.15.25.28Z"/><path class="cls-3" d="M66.78,22.84c0,.13-.09.22-.25.27a2.89,2.89,0,0,1-.85.08,3.29,3.29,0,0,1-.85-.08q-.24-.08-.24-.27V17.72a6.6,6.6,0,0,0-.08-1.2,1,1,0,0,0-.82-.87,4.5,4.5,0,0,0-1-.09c-.57,0-1.29,0-2.16.1a.23.23,0,0,1-.23-.19,2.28,2.28,0,0,1-.07-.7,2.49,2.49,0,0,1,.07-.7.28.28,0,0,1,.26-.2,18.58,18.58,0,0,1,2.2-.12,8.37,8.37,0,0,1,2,.19,2.72,2.72,0,0,1,1.21.62,2.33,2.33,0,0,1,.64,1.12,7.57,7.57,0,0,1,.2,1.92Z"/><path class="cls-3" d="M71.05,22.84c0,.14-.08.23-.25.28a4.5,4.5,0,0,1-1.69,0c-.17-.05-.25-.15-.25-.28l0-8.72c0-.13.08-.22.25-.28a3.23,3.23,0,0,1,.85-.08,2.78,2.78,0,0,1,.84.09c.16.05.25.14.25.27Z"/><path class="cls-3" d="M75.45,15.12A6.09,6.09,0,0,1,77,14a3.31,3.31,0,0,1,1.46-.36,2.78,2.78,0,0,1,1.71.5,2.88,2.88,0,0,1,1,1.52,9.2,9.2,0,0,1,.31,2.65c0,.66,0,1.37-.06,2.11s-.1,1.44-.16,2.11A.76.76,0,0,1,81,23a.58.58,0,0,1-.45.16H76.82a.24.24,0,0,1-.24-.21,2.07,2.07,0,0,1-.07-.7,2.83,2.83,0,0,1,.06-.7c.05-.15.12-.22.22-.22H79.1c.08-1.12.12-2.08.12-2.89a8.77,8.77,0,0,0-.13-1.75,1.72,1.72,0,0,0-.42-.9,1.09,1.09,0,0,0-.78-.27,1.67,1.67,0,0,0-.94.31,5.43,5.43,0,0,0-1.1,1l-1,6a.36.36,0,0,1-.29.28,3.38,3.38,0,0,1-.86.08,3.11,3.11,0,0,1-.83-.08c-.16-.06-.23-.15-.21-.29l1-5.71a2.52,2.52,0,0,0,0-.61,2.77,2.77,0,0,0-.21-.64l-.51-1.23a2.41,2.41,0,0,1-.16-.5.22.22,0,0,1,.06-.23.52.52,0,0,1,.28-.12,5.43,5.43,0,0,1,.68,0,4.73,4.73,0,0,1,.95.06.49.49,0,0,1,.33.3Z"/><path class="cls-3" d="M86,21.44a10.1,10.1,0,0,0,1.62.13,4.28,4.28,0,0,0,2.51-.66,3.89,3.89,0,0,0,1.43-2.07A11.34,11.34,0,0,0,92,15.23V14.16c0-.13.09-.22.26-.27a2.88,2.88,0,0,1,.86-.08,2.74,2.74,0,0,1,.83.08.28.28,0,0,1,.23.27v1a12,12,0,0,1-.75,4.57,5.54,5.54,0,0,1-2.24,2.72,7.27,7.27,0,0,1-3.74.89A13.08,13.08,0,0,1,86,23.26a11.78,11.78,0,0,1-1.23-.17,1.32,1.32,0,0,1-.63-.27.82.82,0,0,1-.24-.51l-1.1-8a.42.42,0,0,1,0-.32.41.41,0,0,1,.28-.15,3.46,3.46,0,0,1,.64,0,3.91,3.91,0,0,1,.94.08c.17.05.27.14.28.27l.47,3.45a3.12,3.12,0,0,0,1.32-.17,1.28,1.28,0,0,0,.61-.76A6,6,0,0,0,87.61,15v-.8a.27.27,0,0,1,.22-.27,2.47,2.47,0,0,1,.8-.08,2.82,2.82,0,0,1,.79.08.28.28,0,0,1,.22.27v.75a7.57,7.57,0,0,1-.38,2.69A2.4,2.4,0,0,1,88,18.94a5,5,0,0,1-2.34.32Z"/></svg>