<svg id="Layer_1" data-name="Layer 1" xmlns="http://www.w3.org/2000/svg" viewBox="0 0 84.07 39.84"><defs><style>.cls-1{fill:#cc2357;}.cls-2{fill:#f42a5f;}.cls-3{fill:#fff;}</style></defs><title>Artboard 104</title><rect class="cls-1" x="0.03" y="2.14" width="84.01" height="37.63" rx="7.78" transform="matrix(1, 0, 0, 1, 0.04, -0.08)"/><rect class="cls-2" x="0.03" y="0.08" width="84.01" height="37.63" rx="3.59" transform="translate(0.04 -0.08) rotate(0.11)"/><path class="cls-3" d="M35,24.2a.31.31,0,0,1-.25.27,3,3,0,0,1-.85.07,2.81,2.81,0,0,1-.85-.08c-.16-.05-.25-.14-.25-.27V19.08a6.08,6.08,0,0,0-.07-1.21,1.13,1.13,0,0,0-.27-.57,1.24,1.24,0,0,0-.56-.3,4.4,4.4,0,0,0-1-.09c-.58,0-1.29,0-2.16.1-.11,0-.19-.06-.23-.19a2.24,2.24,0,0,1-.07-.7,2.2,2.2,0,0,1,.07-.7.28.28,0,0,1,.25-.2A21.17,21.17,0,0,1,31,15.1a8.21,8.21,0,0,1,2,.2,2.75,2.75,0,0,1,1.22.61A2.4,2.4,0,0,1,34.8,17,7.46,7.46,0,0,1,35,19Z"/><path class="cls-3" d="M39.26,24.2c0,.13-.09.22-.25.28a3.4,3.4,0,0,1-.85.07,2.77,2.77,0,0,1-.84-.08c-.17,0-.25-.14-.25-.28V15.47c0-.13.09-.22.25-.27a2.81,2.81,0,0,1,.85-.09,2.69,2.69,0,0,1,.84.09c.17.05.25.15.25.28Z"/><path class="cls-3" d="M43.92,17.94a6.09,6.09,0,0,0-.06.82,11.54,11.54,0,0,0,.07,1.17l.45,4.24a.27.27,0,0,1-.21.31,3,3,0,0,1-.88.08,3.18,3.18,0,0,1-.85-.08.38.38,0,0,1-.26-.31l-.45-4.24q-.06-.62-.06-1.08a6,6,0,0,1,.07-.92l.14-.95H40.82c-.12,0-.2-.07-.25-.22a1.92,1.92,0,0,1-.08-.68,2.22,2.22,0,0,1,.08-.69c0-.15.13-.22.25-.22h4.39c.12,0,.2.07.26.22a2.29,2.29,0,0,1,.07.69,2.19,2.19,0,0,1-.08.68c-.05.15-.13.22-.25.22H44.07Z"/><path class="cls-3" d="M48.93,24.21c0,.14-.08.23-.24.29a3.3,3.3,0,0,1-.85.07,3.18,3.18,0,0,1-.85-.08c-.17,0-.25-.15-.25-.28l0-8.31a.74.74,0,0,1,.14-.46.59.59,0,0,1,.44-.19c.4,0,.87-.07,1.42-.09l1.64,0a6.72,6.72,0,0,1,2.66.43,2.56,2.56,0,0,1,1.33,1.32,6.46,6.46,0,0,1,.38,2.44v4.91c0,.13-.08.22-.24.28a3.3,3.3,0,0,1-.85.07,2.77,2.77,0,0,1-.84-.08c-.17-.05-.25-.14-.25-.27V19.47A5.24,5.24,0,0,0,52.42,18a1.31,1.31,0,0,0-.65-.77,3.24,3.24,0,0,0-1.42-.24c-.51,0-1,0-1.4,0Z"/></svg>