<svg id="Layer_1" data-name="Layer 1" xmlns="http://www.w3.org/2000/svg" viewBox="0 0 100.06 39.87"><defs><style>.cls-1{fill:#30b76d;}.cls-2{fill:#87e0b3;}.cls-3{fill:#fff;}</style></defs><title>Artboard 106</title><rect class="cls-1" x="0.03" y="2.16" width="100" height="37.63" rx="7.78" transform="translate(0.04 -0.1) rotate(0.11)"/><rect class="cls-2" x="0.03" y="0.09" width="100" height="37.63" rx="3.59" transform="translate(0.04 -0.1) rotate(0.11)"/><path class="cls-3" d="M22.9,22.76c0,.13-.09.22-.25.27a3.25,3.25,0,0,1-.84.08A3.82,3.82,0,0,1,21,23c-.17-.06-.25-.15-.25-.28V18a5.26,5.26,0,0,0-.12-1.28,1.49,1.49,0,0,0-.4-.71,1.57,1.57,0,0,0-.74-.37,5.09,5.09,0,0,0-1.23-.12h-3c-.11,0-.19-.07-.24-.22a2.79,2.79,0,0,1-.06-.69,2.29,2.29,0,0,1,.07-.69c0-.14.12-.21.23-.21h3.12a9.51,9.51,0,0,1,2.2.22,3.11,3.11,0,0,1,1.36.68,2.64,2.64,0,0,1,.75,1.22,7.2,7.2,0,0,1,.23,2Zm-5.68,0c0,.13-.08.22-.25.28a2.86,2.86,0,0,1-.84.07,2.89,2.89,0,0,1-.85-.08c-.16-.05-.25-.14-.25-.28V18c0-.14.09-.23.25-.28a2.89,2.89,0,0,1,.85-.08,3.15,3.15,0,0,1,.84.08c.17.05.25.15.25.28Z"/><path class="cls-3" d="M30.47,16.31a4.73,4.73,0,0,1-.24,1.4,11.69,11.69,0,0,1-.74,1.77l-1.65,3.23a.62.62,0,0,1-.42.33,4.34,4.34,0,0,1-1,.08,4,4,0,0,1-.78-.07c-.15-.05-.23-.13-.22-.26a1,1,0,0,1,.11-.35l1.68-3.23A13.89,13.89,0,0,0,28,17.57a3.28,3.28,0,0,0,.23-1.07,1,1,0,0,0-.14-.55.88.88,0,0,0-.46-.31,2.75,2.75,0,0,0-.84-.1H24.28a.58.58,0,0,1-.46-.17.65.65,0,0,1-.16-.48v-3.7q0-.19.24-.27a2.81,2.81,0,0,1,.85-.09,2.77,2.77,0,0,1,.85.09c.17.05.25.15.25.28v2.54h1.24a6.4,6.4,0,0,1,1.56.16,2.83,2.83,0,0,1,1.05.46,1.86,1.86,0,0,1,.58.8A3.1,3.1,0,0,1,30.47,16.31Z"/><path class="cls-3" d="M39.67,15.34a8.58,8.58,0,0,1-.08,1.26,4,4,0,0,1-.27.89,4.5,4.5,0,0,1-.53.85,13,13,0,0,1-1,1.11l1.87,2.75a3.22,3.22,0,0,1,.23.37.6.6,0,0,1,.06.24c0,.12-.08.21-.25.26a3.4,3.4,0,0,1-.85.07,7.56,7.56,0,0,1-.76,0,1.29,1.29,0,0,1-.42-.1.6.6,0,0,1-.28-.25l-2.9-4.3a3.49,3.49,0,0,0-.37.71,3.21,3.21,0,0,0-.15.69,11,11,0,0,0,0,1.19v1.72c0,.13-.08.23-.25.28a3.29,3.29,0,0,1-.85.08,3.15,3.15,0,0,1-.84-.08c-.17-.06-.25-.15-.25-.29V21.07a9.23,9.23,0,0,1,.14-1.79A4.62,4.62,0,0,1,32.33,18a8.82,8.82,0,0,1,.93-1.39l-1.38-2.05a3.22,3.22,0,0,1-.21-.34.65.65,0,0,1-.06-.23c0-.12.08-.2.25-.24a3.36,3.36,0,0,1,.84-.07,5.14,5.14,0,0,1,1,.06.71.71,0,0,1,.44.3l2.48,3.64a5.52,5.52,0,0,0,.59-.76,2.06,2.06,0,0,0,.24-.63,5.13,5.13,0,0,0,.07-.88V14.06c0-.13.08-.22.25-.28a3.25,3.25,0,0,1,.84-.08,2.77,2.77,0,0,1,.85.09c.17.05.25.14.25.27Z"/><path class="cls-3" d="M44.11,21.36a10.22,10.22,0,0,0,1.63.13,4.35,4.35,0,0,0,2.51-.66,3.92,3.92,0,0,0,1.43-2.07,12,12,0,0,0,.48-3.62V14.07c0-.12.08-.21.25-.26a2.92,2.92,0,0,1,.87-.09,3,3,0,0,1,.82.08c.16.06.24.15.24.28v1a12.26,12.26,0,0,1-.75,4.57,5.44,5.44,0,0,1-2.25,2.71,7.11,7.11,0,0,1-3.73.9,12.93,12.93,0,0,1-1.45-.09c-.53-.06-.94-.12-1.23-.17a1.32,1.32,0,0,1-.64-.27.76.76,0,0,1-.23-.51l-1.1-8a.51.51,0,0,1,0-.32.52.52,0,0,1,.29-.14,3.39,3.39,0,0,1,.64,0,3.45,3.45,0,0,1,.94.08c.17.05.27.14.28.27l.46,3.45a2.89,2.89,0,0,0,1.32-.18,1.16,1.16,0,0,0,.61-.76,6.17,6.17,0,0,0,.19-1.71v-.8c0-.12.07-.21.22-.27a2.72,2.72,0,0,1,.79-.08,2.77,2.77,0,0,1,.79.08c.15.06.23.15.23.28v.75a7.58,7.58,0,0,1-.39,2.69,2.43,2.43,0,0,1-1.22,1.35,5.06,5.06,0,0,1-2.34.32Z"/><path class="cls-3" d="M57.45,15.6c-.11,0-.19-.07-.23-.22a2.29,2.29,0,0,1-.07-.69,2.68,2.68,0,0,1,.07-.69q.08-.21.24-.21h4.11a7.23,7.23,0,0,1,2.78.46,3.1,3.1,0,0,1,1.58,1.44,5.68,5.68,0,0,1,.51,2.62A6.42,6.42,0,0,1,65.91,21a3.82,3.82,0,0,1-1.52,1.72,4.62,4.62,0,0,1-2.39.57,4.76,4.76,0,0,1-2.33-.51,3.19,3.19,0,0,1-1.38-1.54,6.34,6.34,0,0,1-.44-2.59,6.27,6.27,0,0,1,.75-3.08Zm3.4,0a5.69,5.69,0,0,0-.75,2.94,5.5,5.5,0,0,0,.21,1.66,1.88,1.88,0,0,0,.65,1,1.86,1.86,0,0,0,1.14.33,1.9,1.9,0,0,0,1.13-.35,2.08,2.08,0,0,0,.71-1,4.78,4.78,0,0,0,.25-1.67,4.29,4.29,0,0,0-.27-1.69,1.7,1.7,0,0,0-.85-.88,4,4,0,0,0-1.61-.27Z"/><path class="cls-3" d="M68.11,23.14c-.1,0-.18-.07-.22-.21a2.18,2.18,0,0,1-.07-.67,2.53,2.53,0,0,1,.07-.72c0-.15.13-.23.23-.22h5.17c.11-1.27.16-2.28.16-3a6.53,6.53,0,0,0-.16-1.75,1.17,1.17,0,0,0-.59-.72,3.58,3.58,0,0,0-1.38-.2H69.94l-.08.72a2.79,2.79,0,0,0,0,.72.77.77,0,0,0,.23.41,2.81,2.81,0,0,0,.6.39L71,18a.24.24,0,0,1,.13.21.63.63,0,0,1-.07.33,2.93,2.93,0,0,1-.23.49,3.78,3.78,0,0,1-.34.55.4.4,0,0,1-.22.17.45.45,0,0,1-.29-.07l-.44-.21a4.07,4.07,0,0,1-1.13-.79,2.08,2.08,0,0,1-.47-.95,5,5,0,0,1,0-1.43L68,14.44a.78.78,0,0,1,.18-.48.64.64,0,0,1,.45-.15h2.79a7.84,7.84,0,0,1,2.07.22,2.57,2.57,0,0,1,1.25.69A2.74,2.74,0,0,1,75.44,16a9.08,9.08,0,0,1,.2,2.17c0,.54,0,1.22-.08,2.06s-.12,1.6-.2,2.27a.76.76,0,0,1-.19.49.61.61,0,0,1-.45.16Z"/><path class="cls-3" d="M85.3,15.43a8.58,8.58,0,0,1-.08,1.26,4,4,0,0,1-.27.89,4.5,4.5,0,0,1-.53.85,13,13,0,0,1-1,1.11l1.87,2.75a3.22,3.22,0,0,1,.23.37.6.6,0,0,1,.06.24c0,.12-.08.21-.25.26a3.4,3.4,0,0,1-.85.07,7.56,7.56,0,0,1-.76,0,1.29,1.29,0,0,1-.42-.1.6.6,0,0,1-.28-.25l-2.9-4.3a3.49,3.49,0,0,0-.37.71,3.21,3.21,0,0,0-.15.69,11,11,0,0,0,0,1.19v1.72c0,.13-.08.23-.25.28a3.29,3.29,0,0,1-.85.08,3.15,3.15,0,0,1-.84-.08c-.17-.06-.25-.15-.25-.29V21.16a9.23,9.23,0,0,1,.14-1.79A4.62,4.62,0,0,1,78,18.1a8.82,8.82,0,0,1,.93-1.39l-1.38-2.05a3.22,3.22,0,0,1-.21-.34.65.65,0,0,1-.06-.23c0-.12.08-.2.25-.24a3.36,3.36,0,0,1,.84-.07,5.14,5.14,0,0,1,1,.06.71.71,0,0,1,.44.3l2.48,3.64A5.52,5.52,0,0,0,82.8,17a2.17,2.17,0,0,0,.24-.63,5.13,5.13,0,0,0,.07-.88V14.15c0-.13.08-.22.25-.28a4.5,4.5,0,0,1,1.69,0c.17.06.25.15.25.28Z"/></svg>