<svg id="Layer_1" data-name="Layer 1" xmlns="http://www.w3.org/2000/svg" viewBox="0 0 20.09 20"><defs><style>.cls-1{fill:none;stroke:#000;stroke-miterlimit:10;stroke-width:0.88px;}</style></defs><title>Artboard 69</title><path class="cls-1" d="M5,5.26h9.75a0,0,0,0,1,0,0V15.93a1.92,1.92,0,0,1-1.92,1.92H7.44A2.47,2.47,0,0,1,5,15.38V5.26A0,0,0,0,1,5,5.26Z"/><line class="cls-1" x1="3.05" y1="5.26" x2="16.6" y2="5.26"/><path class="cls-1" d="M9.52,2.37h.22a2.89,2.89,0,0,1,2.89,2.89v0a0,0,0,0,1,0,0H7a0,0,0,0,1,0,0v-.4A2.49,2.49,0,0,1,9.52,2.37Z"/><line class="cls-1" x1="8.47" y1="7.62" x2="8.47" y2="15.4"/><line class="cls-1" x1="11.27" y1="7.62" x2="11.27" y2="15.4"/></svg>