<svg id="Layer_1" data-name="Layer 1" xmlns="http://www.w3.org/2000/svg" viewBox="0 0 107.06 39.89"><defs><style>.cls-1{fill:#cc2357;}.cls-2{fill:#b72150;}.cls-3{fill:#fff;}</style></defs><title>Artboard 116</title><rect class="cls-1" x="0.03" y="2.17" width="107" height="37.63" rx="7.78" transform="translate(0.04 -0.11) rotate(0.11)"/><rect class="cls-2" x="0.03" y="0.1" width="107" height="37.63" rx="3.59" transform="translate(0.04 -0.11) rotate(0.11)"/><path class="cls-3" d="M31.39,24.18c0,.13-.08.22-.25.28a3,3,0,0,1-.85.07,2.89,2.89,0,0,1-.85-.08q-.24-.07-.24-.27V19.07a7,7,0,0,0-.07-1.21,1.09,1.09,0,0,0-.27-.57,1.2,1.2,0,0,0-.56-.3,4.44,4.44,0,0,0-1-.09c-.57,0-1.29,0-2.15.1-.12,0-.19-.06-.24-.19a2.6,2.6,0,0,1-.07-.7,3,3,0,0,1,.07-.7.29.29,0,0,1,.26-.2,21.17,21.17,0,0,1,2.21-.12,8.21,8.21,0,0,1,2,.2,2.71,2.71,0,0,1,1.21.61A2.41,2.41,0,0,1,31.21,17,7.53,7.53,0,0,1,31.4,19Z"/><path class="cls-3" d="M35.66,24.18c0,.14-.08.23-.25.28a2.81,2.81,0,0,1-.84.08,3.29,3.29,0,0,1-.85-.08c-.17-.05-.25-.15-.25-.28l0-8.72c0-.13.08-.22.25-.27a4,4,0,0,1,1.69,0c.17.05.25.15.25.28Z"/><path class="cls-3" d="M40.33,17.93c0,.29-.06.57-.07.82s0,.69.08,1.17l.45,4.24a.28.28,0,0,1-.22.31,2.88,2.88,0,0,1-.87.08,3.18,3.18,0,0,1-.85-.08.35.35,0,0,1-.26-.31l-.45-4.24c0-.41-.07-.77-.07-1.08a7.7,7.7,0,0,1,.07-.92l.15-1H37.22c-.11,0-.2-.07-.25-.22a2,2,0,0,1-.07-.68,2.41,2.41,0,0,1,.07-.7.27.27,0,0,1,.26-.21h4.39a.27.27,0,0,1,.25.21,2.1,2.1,0,0,1,.07.7,2.3,2.3,0,0,1-.07.68.27.27,0,0,1-.26.22H40.47Z"/><path class="cls-3" d="M45.34,24.2c0,.14-.08.23-.24.28a2.85,2.85,0,0,1-.85.08,3.32,3.32,0,0,1-.86-.08.29.29,0,0,1-.24-.28V15.88a.73.73,0,0,1,.14-.45.63.63,0,0,1,.45-.19c.39,0,.86-.07,1.42-.09s1.09,0,1.63,0a6.51,6.51,0,0,1,2.66.43,2.49,2.49,0,0,1,1.33,1.32,6.09,6.09,0,0,1,.38,2.44v4.91c0,.13-.07.22-.23.28a3.39,3.39,0,0,1-.86.07,3.25,3.25,0,0,1-.84-.08c-.16,0-.25-.14-.25-.27V19.46a5,5,0,0,0-.17-1.53,1.3,1.3,0,0,0-.64-.76,3.27,3.27,0,0,0-1.42-.24c-.52,0-1,0-1.41,0Z"/><path class="cls-3" d="M60.92,20.12a1.87,1.87,0,0,1-.1.71.3.3,0,0,1-.29.2H57a.32.32,0,0,1-.31-.21,2,2,0,0,1-.09-.71,1.61,1.61,0,0,1,.1-.69.3.3,0,0,1,.3-.2h3.52a.31.31,0,0,1,.29.2.85.85,0,0,1,.08.28C60.91,19.82,60.92,20,60.92,20.12Z"/><path class="cls-3" d="M74.06,16.82A7.25,7.25,0,0,1,74,18.08a3.54,3.54,0,0,1-.26.89,4.5,4.5,0,0,1-.53.85c-.23.29-.56.66-1,1.11l1.87,2.75a3.22,3.22,0,0,1,.23.37.6.6,0,0,1,.06.24c0,.12-.08.21-.25.26a4,4,0,0,1-.85.07,7.56,7.56,0,0,1-.76,0,1.43,1.43,0,0,1-.43-.1.63.63,0,0,1-.27-.25l-2.9-4.3a3.77,3.77,0,0,0-.37.71,3.21,3.21,0,0,0-.15.69,11,11,0,0,0,0,1.19v1.72a.3.3,0,0,1-.25.28,3.29,3.29,0,0,1-.85.08,3.15,3.15,0,0,1-.84-.08c-.17-.06-.25-.15-.25-.29V22.55a9.23,9.23,0,0,1,.14-1.79,4.94,4.94,0,0,1,.45-1.27,9.74,9.74,0,0,1,.94-1.39l-1.38-2.05a3.22,3.22,0,0,1-.21-.34.6.6,0,0,1-.06-.23c0-.12.08-.2.25-.24a3.36,3.36,0,0,1,.84-.07,5.14,5.14,0,0,1,1,.06.74.74,0,0,1,.44.3L71,19.17a5,5,0,0,0,.59-.76,2.17,2.17,0,0,0,.24-.63,5.13,5.13,0,0,0,.07-.88V15.54c0-.13.08-.22.25-.28a3.25,3.25,0,0,1,.84-.08,3.29,3.29,0,0,1,.85.08c.17.06.25.15.25.28Z"/><path class="cls-3" d="M81.85,17.82a5.41,5.41,0,0,1-.24,1.4A11.5,11.5,0,0,1,80.86,21l-1.65,3.23a.61.61,0,0,1-.42.32,4.34,4.34,0,0,1-1,.08,3.3,3.3,0,0,1-.78-.07.26.26,0,0,1-.22-.26.84.84,0,0,1,.12-.35l1.68-3.23a15.3,15.3,0,0,0,.75-1.64A3,3,0,0,0,79.6,18a.9.9,0,0,0-.14-.55.78.78,0,0,0-.46-.3,2.71,2.71,0,0,0-.84-.11H75.65a.59.59,0,0,1-.46-.18A.64.64,0,0,1,75,16.4V12.7a.29.29,0,0,1,.24-.28,2.89,2.89,0,0,1,.85-.08,3.18,3.18,0,0,1,.85.08c.17.06.25.15.25.28v2.54h1.24A6.93,6.93,0,0,1,80,15.4a2.68,2.68,0,0,1,1,.47,1.94,1.94,0,0,1,.59.79A3.35,3.35,0,0,1,81.85,17.82Z"/></svg>