<svg id="Layer_1" data-name="Layer 1" xmlns="http://www.w3.org/2000/svg" viewBox="0 0 108.06 39.89"><defs><style>.cls-1{fill:#40cc54;}.cls-2{fill:#39bc4b;}.cls-3{fill:#fff;}</style></defs><title>Artboard 115</title><rect class="cls-1" x="0.02" y="2.16" width="108.01" height="37.63" rx="8.46" transform="translate(0.04 -0.11) rotate(0.11)"/><rect class="cls-2" x="0.03" y="0.1" width="108.01" height="37.63" rx="5.56" transform="translate(0.04 -0.11) rotate(0.11)"/><path class="cls-3" d="M35.3,16.76a6.25,6.25,0,0,1-.21,1.48A12.13,12.13,0,0,1,34.52,20l-1.07,2.73a.48.48,0,0,1-.35.31,4.59,4.59,0,0,1-.91.06,3.45,3.45,0,0,1-.82-.06.21.21,0,0,1-.19-.22,1.31,1.31,0,0,1,.1-.4l1.15-2.91a11.92,11.92,0,0,0,.46-1.45,4.77,4.77,0,0,0,.16-1.14,1.56,1.56,0,0,0-.18-.82,1.07,1.07,0,0,0-.6-.43,3.33,3.33,0,0,0-1.11-.14H27.44c-.11,0-.19-.07-.23-.21a2.41,2.41,0,0,1-.07-.7,2.68,2.68,0,0,1,.07-.69c.05-.14.12-.21.24-.21h3.9a6.73,6.73,0,0,1,2.27.33,2.38,2.38,0,0,1,1.28,1A3.28,3.28,0,0,1,35.3,16.76Zm-5.89,9.13a.29.29,0,0,1-.24.28,2.89,2.89,0,0,1-.85.08,3.18,3.18,0,0,1-.85-.08c-.17-.06-.25-.15-.25-.28l0-7.91a.29.29,0,0,1,.24-.28,3.32,3.32,0,0,1,.86-.08,3.15,3.15,0,0,1,.84.08c.16.06.25.15.25.28Z"/><path class="cls-3" d="M39.11,22.78c0,.13-.08.22-.24.28a4.91,4.91,0,0,1-1.71,0c-.16-.05-.24-.14-.24-.28l0-8.31a.64.64,0,0,1,.14-.45.59.59,0,0,1,.44-.2c.4,0,.87-.07,1.42-.09l1.63,0a6.74,6.74,0,0,1,2.67.43,2.56,2.56,0,0,1,1.33,1.32A6.46,6.46,0,0,1,45,17.88V22.8q0,.19-.24.27a4.29,4.29,0,0,1-1.7,0c-.16,0-.25-.14-.24-.27V18a4.65,4.65,0,0,0-.17-1.53,1.25,1.25,0,0,0-.64-.76,3.25,3.25,0,0,0-1.42-.25c-.52,0-1,0-1.41,0Z"/><path class="cls-3" d="M49.3,15.06a6,6,0,0,1,1.51-1.12,3.26,3.26,0,0,1,1.47-.37,2.79,2.79,0,0,1,1.7.5,2.93,2.93,0,0,1,1,1.52,9.28,9.28,0,0,1,.31,2.66c0,.66,0,1.36-.07,2.1S55.1,21.8,55,22.47a.79.79,0,0,1-.2.48.61.61,0,0,1-.46.16H50.66c-.11,0-.19-.07-.24-.22a2.32,2.32,0,0,1-.07-.7,2.83,2.83,0,0,1,.07-.7c0-.14.12-.21.22-.21H53c.08-1.11.11-2.07.12-2.89a9.48,9.48,0,0,0-.13-1.74,1.72,1.72,0,0,0-.42-.9,1.05,1.05,0,0,0-.78-.28,1.72,1.72,0,0,0-.94.31,5.87,5.87,0,0,0-1.11,1l-1,6c0,.13-.11.22-.28.28a3.5,3.5,0,0,1-.86.07,2.74,2.74,0,0,1-.83-.08c-.16-.05-.23-.14-.21-.28l.94-5.72a1.74,1.74,0,0,0,0-.6,2.74,2.74,0,0,0-.2-.65l-.51-1.22a2.63,2.63,0,0,1-.17-.5.29.29,0,0,1,.06-.24.57.57,0,0,1,.29-.11,3.75,3.75,0,0,1,.68,0,5.09,5.09,0,0,1,.94.07.49.49,0,0,1,.34.3Z"/><path class="cls-3" d="M64.91,18.71a2,2,0,0,1-.1.72.31.31,0,0,1-.3.2H61a.32.32,0,0,1-.31-.21,1.89,1.89,0,0,1-.09-.7,1.69,1.69,0,0,1,.1-.7.31.31,0,0,1,.3-.2h3.52a.28.28,0,0,1,.29.19.72.72,0,0,1,.07.28A2.58,2.58,0,0,1,64.91,18.71Z"/><path class="cls-3" d="M72.56,26c0,.13-.08.22-.25.28a3.15,3.15,0,0,1-.84.08,2.81,2.81,0,0,1-.85-.09c-.16-.05-.25-.15-.25-.27l0-11.86c0-.13.08-.22.25-.28a3.23,3.23,0,0,1,.85-.08,2.78,2.78,0,0,1,.84.09c.16.05.25.14.25.27Z"/><path class="cls-3" d="M81,18.19a42.76,42.76,0,0,1-.27,4.32.83.83,0,0,1-.21.5.56.56,0,0,1-.44.15H74.27c-.1,0-.18-.07-.22-.21a2.22,2.22,0,0,1-.07-.68,2.42,2.42,0,0,1,.08-.71c0-.15.12-.23.21-.22h4.34c.11-1.3.16-2.31.16-3a6.55,6.55,0,0,0-.17-1.77,1.18,1.18,0,0,0-.61-.74,3.38,3.38,0,0,0-1.43-.22,17.68,17.68,0,0,0-1.94.13.22.22,0,0,1-.24-.18,2.72,2.72,0,0,1-.06-.7,2.2,2.2,0,0,1,.07-.7.3.3,0,0,1,.25-.21,14.61,14.61,0,0,1,2-.15,6.88,6.88,0,0,1,2.62.4,2.38,2.38,0,0,1,1.29,1.3A7.27,7.27,0,0,1,81,18.19Z"/></svg>