<svg id="Layer_1" data-name="Layer 1" xmlns="http://www.w3.org/2000/svg" viewBox="0 0 20.09 20"><title>Artboard 69 copy</title><path d="M13.13,10.26c-.8,1.72-1.59,3.45-2.42,5.15a2.05,2.05,0,0,1-.73.79c-1.05.64-2.15,1.2-3.2,1.83-.61.37-.85.2-1-.46-.2-1.21-.46-2.42-.65-3.63a1.85,1.85,0,0,1,.11-1C6.9,9.45,8.55,6,10.16,2.46c.22-.47.45-.57.92-.34,1.37.66,2.75,1.32,4.15,1.93.57.25.57.54.33,1C14.73,6.81,13.94,8.53,13.13,10.26ZM9.69,5.15,5.91,13.23,7.64,14,11.41,6Zm.35,10L13.82,7.1l-1.73-.8L8.31,14.39ZM15,4.7,10.81,2.75,10,4.5l4.17,2ZM5.84,14a13.88,13.88,0,0,0,.47,2.33c.11.3.75.68,1,.59a15.78,15.78,0,0,0,2.22-1.2Z"/></svg>