<svg id="Layer_1" data-name="Layer 1" xmlns="http://www.w3.org/2000/svg" viewBox="0 0 167.13 47.55"><defs><style>.cls-1{fill:#30b76d;}.cls-2{fill:#4c8967;}.cls-3{fill:#fff;}</style></defs><title>מחולל זין לעיצוב</title><rect class="cls-1" x="0.02" y="2.61" width="167.08" height="44.8" rx="12" transform="translate(0.05 -0.16) rotate(0.11)"/><rect class="cls-2" x="2.26" y="0.15" width="164.84" height="44.8" rx="7.88" transform="translate(0.04 -0.17) rotate(0.11)"/><path class="cls-3" d="M70.3,27.84c0,.18-.11.31-.34.37a6.08,6.08,0,0,1-2.25,0c-.23-.07-.34-.19-.34-.37V21.46a7,7,0,0,0-.16-1.71,2,2,0,0,0-.53-.95,2.15,2.15,0,0,0-1-.49,6.75,6.75,0,0,0-1.65-.16h-4c-.15,0-.26-.09-.32-.29a3.37,3.37,0,0,1-.09-.92,3,3,0,0,1,.1-.93c.06-.19.16-.28.31-.28h4.18a12.48,12.48,0,0,1,2.94.3,4.14,4.14,0,0,1,1.83.9,3.62,3.62,0,0,1,1,1.64,9.39,9.39,0,0,1,.31,2.7Zm-7.6,0c0,.18-.11.31-.33.38a6.49,6.49,0,0,1-2.27,0c-.22-.08-.33-.2-.33-.38v-6.4c0-.18.11-.3.33-.37a4,4,0,0,1,1.14-.1,4.26,4.26,0,0,1,1.13.1c.22.07.33.2.33.38Z"/><path class="cls-3" d="M72.44,18.17c-.15,0-.25-.1-.31-.29A3.41,3.41,0,0,1,72,17a3.41,3.41,0,0,1,.09-.93c.06-.19.17-.28.32-.28H78a9.38,9.38,0,0,1,3.73.63A4.12,4.12,0,0,1,83.8,18.3a7.57,7.57,0,0,1,.68,3.52,8.59,8.59,0,0,1-.71,3.62,5.08,5.08,0,0,1-2,2.3,6.26,6.26,0,0,1-3.21.78,6.5,6.5,0,0,1-3.13-.7,4.24,4.24,0,0,1-1.83-2.06,8.37,8.37,0,0,1-.6-3.47,8.49,8.49,0,0,1,1-4.12Zm4.55,0a7.6,7.6,0,0,0-1,3.94,7,7,0,0,0,.29,2.22,2.27,2.27,0,0,0,2.39,1.74,2.46,2.46,0,0,0,1.51-.46,2.85,2.85,0,0,0,1-1.39A7,7,0,0,0,81.47,22a5.7,5.7,0,0,0-.36-2.26A2.25,2.25,0,0,0,80,18.55a5.07,5.07,0,0,0-2.15-.37Z"/><path class="cls-3" d="M89.65,22.86c0,.18-.12.31-.34.38a4.26,4.26,0,0,1-1.13.1A3.91,3.91,0,0,1,87,23.23c-.22-.07-.33-.19-.33-.37V16.18c0-.17.12-.29.34-.37a5.91,5.91,0,0,1,2.27,0c.22.08.33.2.33.38Z"/><path class="cls-3" d="M98.3,27.44a.85.85,0,0,1-.22.63.77.77,0,0,1-.6.22H91.79c-.14,0-.24-.09-.3-.29a3,3,0,0,1-.1-.93,3.4,3.4,0,0,1,.1-.94c.07-.19.17-.29.3-.29h3.58V21a10.13,10.13,0,0,0-.12-1.88,1.21,1.21,0,0,0-.47-.77,2.34,2.34,0,0,0-1.16-.21,10.81,10.81,0,0,0-1.49.13c-.11,0-.19-.07-.23-.26a4.13,4.13,0,0,1-.07-.93,3.74,3.74,0,0,1,.08-.91.36.36,0,0,1,.29-.3,11.37,11.37,0,0,1,1.88-.16A7.07,7.07,0,0,1,96.2,16a2.68,2.68,0,0,1,1.25.8,3.54,3.54,0,0,1,.66,1.49,12.12,12.12,0,0,1,.21,2.53Z"/><path class="cls-3" d="M109.49,21.65c0,1.56-.13,3.49-.36,5.8a1.06,1.06,0,0,1-.28.65.78.78,0,0,1-.6.22l-7.73,0c-.13,0-.23-.09-.29-.28a3.29,3.29,0,0,1-.09-.91,3.2,3.2,0,0,1,.1-1c.06-.2.16-.3.29-.3h5.81c.14-1.74.21-3.09.21-4.06a8.44,8.44,0,0,0-.22-2.38,1.61,1.61,0,0,0-.82-1,4.75,4.75,0,0,0-1.92-.28,21.17,21.17,0,0,0-2.59.17.31.31,0,0,1-.33-.25,3.76,3.76,0,0,1-.08-.93,3.16,3.16,0,0,1,.09-.94.42.42,0,0,1,.34-.29,20.2,20.2,0,0,1,2.72-.19,9.17,9.17,0,0,1,3.51.53A3.17,3.17,0,0,1,109,18,10,10,0,0,1,109.49,21.65Z"/></svg>