<svg id="Layer_1" data-name="Layer 1" xmlns="http://www.w3.org/2000/svg" viewBox="0 0 167.14 47.56"><defs><style>.cls-1{fill:#30b76d;}.cls-2{fill:#87e0b3;}.cls-3{fill:#fff;}</style></defs><title>Artboard 117</title><rect class="cls-1" x="0.02" y="2.61" width="167.08" height="44.8" rx="12" transform="translate(0.05 -0.16) rotate(0.11)"/><rect class="cls-2" x="0.03" y="0.15" width="167.08" height="44.8" rx="7.88" transform="translate(0.04 -0.16) rotate(0.11)"/><path class="cls-3" d="M70.31,27.84c0,.19-.12.31-.34.38a4.9,4.9,0,0,1-1.12.09,4.4,4.4,0,0,1-1.14-.1c-.22-.08-.34-.2-.34-.37l0-6.37a6.77,6.77,0,0,0-.17-1.71,1.84,1.84,0,0,0-.53-1,2.11,2.11,0,0,0-1-.5,7.91,7.91,0,0,0-1.65-.16h-4c-.15,0-.25-.1-.32-.29a3.5,3.5,0,0,1-.08-.93,3.41,3.41,0,0,1,.09-.93c.06-.19.16-.28.32-.28h4.18a12.51,12.51,0,0,1,2.93.29,4.25,4.25,0,0,1,1.83.91,3.5,3.5,0,0,1,1,1.63,9.44,9.44,0,0,1,.31,2.7Zm-7.61,0c0,.18-.11.3-.33.37a4.16,4.16,0,0,1-1.13.11,4.3,4.3,0,0,1-1.14-.11c-.22-.07-.33-.2-.33-.38V21.42c0-.18.11-.31.34-.38a4.3,4.3,0,0,1,1.14-.1,4.07,4.07,0,0,1,1.12.11c.23.07.34.19.34.37Z"/><path class="cls-3" d="M72.45,18.17c-.16,0-.26-.1-.32-.29A3.37,3.37,0,0,1,72,17a3.36,3.36,0,0,1,.09-.93c.06-.19.17-.29.32-.28H78a9.52,9.52,0,0,1,3.72.62,4.24,4.24,0,0,1,2.13,1.93,7.51,7.51,0,0,1,.67,3.51,8.56,8.56,0,0,1-.71,3.62,5,5,0,0,1-2,2.3,6.21,6.21,0,0,1-3.21.78,6.32,6.32,0,0,1-3.12-.69,4.19,4.19,0,0,1-1.84-2.07,8.68,8.68,0,0,1-.6-3.47,8.41,8.41,0,0,1,1-4.12Zm4.54,0a7.72,7.72,0,0,0-1,3.94,7.27,7.27,0,0,0,.29,2.23,2.54,2.54,0,0,0,.87,1.3,2.82,2.82,0,0,0,3,0,2.85,2.85,0,0,0,1-1.39A6.66,6.66,0,0,0,81.47,22a5.73,5.73,0,0,0-.36-2.26A2.28,2.28,0,0,0,80,18.55a5.21,5.21,0,0,0-2.14-.37Z"/><path class="cls-3" d="M89.65,22.87c0,.18-.11.3-.34.37a4.12,4.12,0,0,1-1.12.11,4.19,4.19,0,0,1-1.14-.11c-.23-.07-.34-.2-.34-.38l0-6.68c0-.17.11-.29.33-.37a3.91,3.91,0,0,1,1.14-.1,3.79,3.79,0,0,1,1.13.11c.22.07.33.2.33.37Z"/><path class="cls-3" d="M98.31,27.44a.9.9,0,0,1-.22.64.82.82,0,0,1-.61.22H91.79c-.13,0-.24-.1-.3-.29a3.49,3.49,0,0,1-.09-.94,3.41,3.41,0,0,1,.09-.93c.07-.2.17-.29.31-.29h3.58V21a9.07,9.07,0,0,0-.13-1.87,1.19,1.19,0,0,0-.47-.78,2.32,2.32,0,0,0-1.15-.21,11.22,11.22,0,0,0-1.5.14c-.11,0-.18-.07-.23-.27a5,5,0,0,1-.06-.92,3.82,3.82,0,0,1,.07-.91.36.36,0,0,1,.29-.3,10.45,10.45,0,0,1,1.88-.16A7.11,7.11,0,0,1,96.2,16a2.58,2.58,0,0,1,1.25.81,3.38,3.38,0,0,1,.67,1.49,12.89,12.89,0,0,1,.2,2.53Z"/><path class="cls-3" d="M109.49,21.66a57.77,57.77,0,0,1-.36,5.79,1.12,1.12,0,0,1-.27.66.84.84,0,0,1-.6.21l-7.73,0c-.14,0-.24-.09-.3-.28a3.25,3.25,0,0,1-.09-.9,3.57,3.57,0,0,1,.1-1c.07-.2.16-.3.29-.3h5.82c.13-1.74.21-3.1.21-4.07a8.65,8.65,0,0,0-.23-2.37,1.58,1.58,0,0,0-.82-1,4.66,4.66,0,0,0-1.91-.29c-.68,0-1.54.06-2.6.17a.28.28,0,0,1-.32-.24,3.34,3.34,0,0,1-.09-.94,3.53,3.53,0,0,1,.1-.94.4.4,0,0,1,.34-.28,20.16,20.16,0,0,1,2.72-.2,9.35,9.35,0,0,1,3.5.53A3.22,3.22,0,0,1,109,18,9.72,9.72,0,0,1,109.49,21.66Z"/></svg>