<svg id="Layer_1" data-name="Layer 1" xmlns="http://www.w3.org/2000/svg" xmlns:xlink="http://www.w3.org/1999/xlink" viewBox="0 0 170.88 68.52"><defs><style>.cls-1,.cls-16{fill:none;}.cls-2{fill:#c7e1b1;}.cls-3{stroke:#231f20;stroke-width:0.67px;}.cls-11,.cls-12,.cls-16,.cls-3,.cls-6,.cls-7,.cls-8{stroke-miterlimit:10;}.cls-4{fill:#231f20;}.cls-5{clip-path:url(#clip-path);}.cls-6{fill:#3fa8df;stroke:#030306;stroke-width:0.52px;}.cls-12,.cls-7,.cls-8{fill:#f3b88f;}.cls-7{stroke:#000;stroke-width:0.38px;}.cls-11,.cls-12,.cls-16,.cls-8{stroke:#4f392c;}.cls-8{stroke-width:0.31px;}.cls-9{fill:#704f3c;}.cls-10{fill:#422d22;}.cls-11{fill:#8e6449;stroke-width:0.46px;}.cls-12{stroke-width:0.28px;}.cls-13{fill:#50250f;}.cls-14{fill:#fff;}.cls-15{fill:#395eaa;}.cls-16{stroke-width:0.31px;}</style><clipPath id="clip-path"><rect class="cls-1" x="118.06" y="13.01" width="53.8" height="54.74"/></clipPath></defs><title>Artboard 94</title><polygon class="cls-2" points="126.48 68.04 4.55 68.04 1 61.57 130.44 61.57 126.48 68.04"/><path class="cls-3" d="M98.93,63.24,96.44,63c-.17,0-.52-.1-.57-.27-.32-1-.66-2-1-3-.16-.53-.29-1.08-.44-1.62a.2.2,0,0,1,.07-.24c.27-.23.53-.47.81-.68a33.87,33.87,0,0,1,3.13-2.07.59.59,0,0,1,.75,0c.69.55,1.4,1.07,2.09,1.63.47.39.92.82,1.38,1.22a.55.55,0,0,1,.18.66,36.92,36.92,0,0,1-1.58,4.1.6.6,0,0,1-.6.39Z"/><path class="cls-3" d="M102.81,49.47l-.18,0a10.28,10.28,0,0,0-3.1.61c-.21.08-.41.2-.63.31a2.73,2.73,0,0,0-1.27-.7c-.69-.23-1.39-.41-2.08-.61-.16-.05-.19-.07-.11-.22a2.52,2.52,0,0,1,.73-.76l.27-.2a2.55,2.55,0,0,1,1.34-.44,10.05,10.05,0,0,1,3.5.19.39.39,0,0,1,.16.07c.33.29.66.59,1,.9A1.39,1.39,0,0,1,102.81,49.47Z"/><path class="cls-3" d="M106.74,56.7a2.8,2.8,0,0,0,.29-1.62,11,11,0,0,0-.36-2.55s0-.06,0-.1a2.45,2.45,0,0,1,1.11.3s.06.07.08.1a10.2,10.2,0,0,1,1,3.1,10.47,10.47,0,0,1,.08,1.94,2.25,2.25,0,0,1-.49,1.25l-.15-.3c-.22-.42-.43-.85-.67-1.25A2.18,2.18,0,0,0,106.74,56.7Z"/><path class="cls-3" d="M91.39,51.8a9.92,9.92,0,0,0-.63,2.55,3.5,3.5,0,0,0,0,1.29,3.42,3.42,0,0,0,.11.35,2,2,0,0,0-.72.71,5.13,5.13,0,0,0-.81,1.64,1,1,0,0,1-.28-.59,10,10,0,0,1,1.63-5.86.29.29,0,0,1,.18-.11,3.27,3.27,0,0,1,.44,0Z"/><path class="cls-3" d="M101.46,67c.66-.47,1.42-.81,1.75-1.64a1,1,0,0,0,.81-.07,7.49,7.49,0,0,0,2.57-1.61l.1-.08h0C106.21,64.68,103.12,66.68,101.46,67Z"/><path class="cls-3" d="M90.92,63.05c.36.3.72.61,1.1.89s.82.55,1.24.81a1,1,0,0,0,.73.14,1.86,1.86,0,0,0,.65.93c.31.28.65.53,1,.79,0,0,.07,0,.09.09A9.63,9.63,0,0,1,90.92,63.05Z"/><path class="cls-4" d="M10.7,67V53.69a5.72,5.72,0,0,1,.52-2.52,5.94,5.94,0,0,1,1.42-1.82l-.49,0-.6,0-.59,0-.43,0h-8l.34-1.88H16.39l-.34,1.88h-1a1.84,1.84,0,0,0-1.12.33,2.45,2.45,0,0,0-.7.83,3.73,3.73,0,0,0-.35,1.07,5.63,5.63,0,0,0-.1,1V67Z"/><path class="cls-4" d="M35.27,59.7a13.63,13.63,0,0,1-.28,3,6.24,6.24,0,0,1-.94,2.2,4.5,4.5,0,0,1-1.79,1.51,6.3,6.3,0,0,1-2.73.55,10.48,10.48,0,0,1-1.81-.14,7.07,7.07,0,0,1-1.45-.4l.62-1.75a8.2,8.2,0,0,0,2.6.4,3.75,3.75,0,0,0,1.8-.39,2.89,2.89,0,0,0,1.13-1.06A4.78,4.78,0,0,0,33,62a11.13,11.13,0,0,0,.17-2v-4.1a12.84,12.84,0,0,0-.11-1.62,7.42,7.42,0,0,0-.39-1.61,6.34,6.34,0,0,0-.74-1.47A5.4,5.4,0,0,0,30.79,50a5.6,5.6,0,0,0-1.6-.82A7,7,0,0,0,27,48.9a7.54,7.54,0,0,0-1.61.17,6.55,6.55,0,0,0-1.58.54,7,7,0,0,0-1.39.89,4.36,4.36,0,0,0-1,1.27,3.64,3.64,0,0,0-.3.63,2.13,2.13,0,0,0-.13.71V66.65H18.91V50.49a9.13,9.13,0,0,0-.11-1.4,4.07,4.07,0,0,0-.48-1.38l1.88-.82a5.43,5.43,0,0,1,.52,1.3A8.27,8.27,0,0,1,20.94,50a8.37,8.37,0,0,1,2.74-2.22A7.9,7.9,0,0,1,27.3,47a8.69,8.69,0,0,1,3.42.64,6.81,6.81,0,0,1,2.5,1.79,7.58,7.58,0,0,1,1.53,2.76,11.51,11.51,0,0,1,.52,3.58Z"/><path class="cls-4" d="M49.65,52.57c0,.29,0,.61,0,.94s-.06.59-.08.79l-.43,4.43a15,15,0,0,1-.3,1.86,10.64,10.64,0,0,1-.56,1.79,8.27,8.27,0,0,1-.87,1.6,5.77,5.77,0,0,1-1.22,1.34,5.08,5.08,0,0,1-1.73.94,11.65,11.65,0,0,1-2,.48,18,18,0,0,1-2,.17l-1.68,0,.65-1.81,1.11,0A11.79,11.79,0,0,0,41.74,65a13.23,13.23,0,0,0,1.33-.29,4.57,4.57,0,0,0,1.19-.49,4.34,4.34,0,0,0,1.1-.91,5.62,5.62,0,0,0,.8-1.26,8.86,8.86,0,0,0,.53-1.5A9.8,9.8,0,0,0,47,58.92l.46-4.44c0-.11,0-.31,0-.6s0-.61,0-1a3.62,3.62,0,0,0-.28-1.5,2.91,2.91,0,0,0-.81-1.08,3.93,3.93,0,0,0-1.29-.67,5.83,5.83,0,0,0-1.68-.23h-7.9V40.21h2.09v7.36h6a7.94,7.94,0,0,1,2.46.36,5.39,5.39,0,0,1,1.88,1,4.67,4.67,0,0,1,1.21,1.58A4.85,4.85,0,0,1,49.65,52.57Z"/><path class="cls-4" d="M81.1,67H79V55.19a5.83,5.83,0,0,0-1.64-4.55,6.66,6.66,0,0,0-4.62-1.48,20.75,20.75,0,0,0-3,.21c-.95.14-1.89.31-2.82.54l.26-2A23.91,23.91,0,0,1,70,47.45a26.4,26.4,0,0,1,2.73-.15,11.53,11.53,0,0,1,3.37.47,7,7,0,0,1,2.64,1.43,6.56,6.56,0,0,1,1.71,2.42,9,9,0,0,1,.62,3.47Z"/><path class="cls-4" d="M126.48,59.7a13.63,13.63,0,0,1-.28,3,6.43,6.43,0,0,1-.94,2.2,4.5,4.5,0,0,1-1.79,1.51,6.33,6.33,0,0,1-2.73.55,10.4,10.4,0,0,1-1.81-.14,6.89,6.89,0,0,1-1.45-.4l.61-1.75a8.22,8.22,0,0,0,1.19.29,8.07,8.07,0,0,0,1.41.11,3.76,3.76,0,0,0,1.81-.39,3,3,0,0,0,1.13-1.06A4.78,4.78,0,0,0,124.2,62a11.13,11.13,0,0,0,.17-2v-4.1a12.84,12.84,0,0,0-.11-1.62,8.79,8.79,0,0,0-.39-1.61,6.34,6.34,0,0,0-.74-1.47A5.23,5.23,0,0,0,122,50a5.48,5.48,0,0,0-1.6-.82,7,7,0,0,0-2.14-.3,7.63,7.63,0,0,0-1.62.17,6.63,6.63,0,0,0-1.57.54,7,7,0,0,0-1.39.89,4.21,4.21,0,0,0-1,1.27,3.64,3.64,0,0,0-.3.63,1.9,1.9,0,0,0-.13.71V66.65h-2.1V50.49a9.14,9.14,0,0,0-.1-1.4,4.55,4.55,0,0,0-.48-1.38l1.88-.82a5.43,5.43,0,0,1,.52,1.3,8.91,8.91,0,0,1,.22,1.84,8.37,8.37,0,0,1,2.74-2.22A7.86,7.86,0,0,1,118.5,47a8.71,8.71,0,0,1,3.43.64,6.9,6.9,0,0,1,2.5,1.79A7.88,7.88,0,0,1,126,52.19a11.51,11.51,0,0,1,.52,3.58Z"/><path class="cls-4" d="M55.84,67h-2.1V47.57h2.1Z"/><circle class="cls-4" cx="52.21" cy="57.2" r="1.23"/><path class="cls-4" d="M86.49,67h-2.1V47.57h2.1Z"/><circle class="cls-4" cx="85.44" cy="45.35" r="1.23"/><g class="cls-5"><path class="cls-6" d="M142.63,60.35h12.16s8.41-1.72,11.59,5.07S168.49,80,168.49,80l-6.36,1.27-26-.37L129,80.11s.29-10,1.85-12.8S134.07,61.22,142.63,60.35Z"/><path class="cls-7" d="M143.09,60.92s1.37,4.48,5.53,4.12,5.64-2.36,5.18-4.46S143.09,60.92,143.09,60.92Z"/><path class="cls-8" d="M129.78,43.28s1.84,10.94,7.27,14.12c5.22,3.06,7,4.33,11.57,4.21s12-3,15-8.5c1.24-2.26,3.33-7,3.32-9.79S161.83,26,161.83,26l-16.78-1.77-9.84,3.09Z"/><path class="cls-9" d="M133.58,38.55s-.52,1.47.22,1.37,1.21-1.82,2.74-2.3,2.72-1.61,7.61,0c0,0,2.09-.06.61-.84a9.16,9.16,0,0,0-4-1.46C139.24,35.25,135.8,34.75,133.58,38.55Z"/><path class="cls-9" d="M152.71,36.87s-1.33,1.05.48,1a8.29,8.29,0,0,1,6.12-.47,8.55,8.55,0,0,1,4.54,3V38.14S159.39,33.31,152.71,36.87Z"/><path class="cls-9" d="M145,50.16a10.52,10.52,0,0,0,2.59.32,1.25,1.25,0,0,1,1.16.4l.56-.36a9.75,9.75,0,0,1,1.5-.2c.56,0,1.88-.23,2-.5,0,0-.5,1-2.78,1.43,0,0-.67,1.16-2,.18a4.61,4.61,0,0,0-1.69-.61C145.15,50.64,144.83,50.32,145,50.16Z"/><path class="cls-10" d="M143.75,54.13s-1-.09-.5.72,8.17,2.17,10.65,0c0,0,.78-.44-.56-.53A14.7,14.7,0,0,1,143.75,54.13Z"/><path class="cls-11" d="M150.2,16.53s-19.83-1.12-21.5,11.58.55,14.48.55,14.48,1.9,2.93,3.5,3.51c.79.3.3-6.11-.23-6.86,0,0,11.69-9.16,11.51-13.55,0,0,13.45,6,13.26,7.66,0,0,1.69-1.3-1.68-5.32,0,0,5.7,5.14,5.79,7.94,0,0,2.06.56,0-5.23l3.46,6.73s-2.19,8.09-.7,9c0,0,1.62-4,3-3.61s1.79-11.07,1.25-12.59-2.54-8-7.08-11.39C154.15,13.54,150.2,16.53,150.2,16.53Z"/><path class="cls-12" d="M131.59,43.41a2.92,2.92,0,0,0-3.4.9c-1.22,1.78-.31,7.82,2.31,8.21,0,0,2.72,2.69,3.21,1.72a5.21,5.21,0,0,0,0-2.79l-.8-7.2Z"/><path class="cls-13" d="M133.69,50.86a.12.12,0,0,0,0-.08,25.58,25.58,0,0,1-1.88-4.3c-.12-.6-.43-.82-.73-.87a.19.19,0,0,0-.16.32,1.27,1.27,0,0,1,.28.56l.22.84a.23.23,0,0,1,0,.14c-.22.38-1.29,2.48,0,3.57a.19.19,0,0,0,.3-.21,4.39,4.39,0,0,1-.11-2.35c.33-1.43.41-.24.43,0a.14.14,0,0,0,0,.07l1.35,2.71a.18.18,0,0,0,.35-.09Z"/><path class="cls-12" d="M165.84,42.77l.06,0a2.87,2.87,0,0,1,3.36.92c1.21,1.75.32,7.7-2.24,8.19a.35.35,0,0,0-.14.06c-.41.34-3,2.09-3.49,1.19s.21-2.06.28-2.28a.14.14,0,0,0,0-.06v-5.3a23.25,23.25,0,0,1,1.45-1.86Z"/><path class="cls-13" d="M163.6,50.53a.26.26,0,0,1,.05-.19,16.4,16.4,0,0,0,2-3.86,1.05,1.05,0,0,1,.05-.19.3.3,0,0,1,.57.18v0l-.2.79a.33.33,0,0,0,0,.22c.22.41,1,2,.36,3.09a.3.3,0,0,1-.55-.21,4.34,4.34,0,0,0,0-1.9c-.31-1.39-.41-.3-.43,0a.2.2,0,0,1,0,.11l-1.24,2.5a.3.3,0,0,1-.57-.12Z"/><path class="cls-9" d="M159,40.12l1,.63s-3.66-.74-6.21,1c0,0-1.46.25-.31-.37S155.37,40.08,159,40.12Z"/><path class="cls-14" d="M155.46,41.5A13.79,13.79,0,0,0,153,43c-.38.48-.93,1.9.94,1.53a36.35,36.35,0,0,1,5.68-.63c.74.06,1.45-1.24.71-1.79a5.81,5.81,0,0,0-4.91-.64"/><path class="cls-15" d="M158.26,43.18c0,.87-.16,1.1-1.49,1.07s-1.69-.2-1.69-1.07a1.59,1.59,0,0,1,3.18,0Z"/><circle cx="156.67" cy="42.99" r="0.75"/><path class="cls-16" d="M153,43s2.45-2,4.08-1.8,3.2.41,3.48,1.17"/><path class="cls-16" d="M143.29,19.69s-11.21,2.58-12.52,12.64"/><path class="cls-16" d="M143.29,22.16s-6,1.48-9.06,8.69"/><path class="cls-9" d="M136.23,42.22v.53s5.3-1,7.05.58H140.9a1.65,1.65,0,0,0-1.75.74s3.23-1,5.51.27c0,0-.95-3.29-3.5-3.61,0,0,2,1,2.07,1.81C143.23,42.54,140.58,40,136.23,42.22Z"/></g></svg>