<svg id="Layer_1" data-name="Layer 1" xmlns="http://www.w3.org/2000/svg" viewBox="0 0 178.06 45.12"><defs><style>.cls-1{fill:#2eb741;}.cls-2{fill:#fdfffd;}</style></defs><title>Artboard 110</title><rect class="cls-1" x="0.03" y="0.16" width="178" height="44.8" rx="7.88" transform="translate(0.04 -0.18) rotate(0.11)"/><path class="cls-2" d="M43,26.19q0,.19-.24.27a4.9,4.9,0,0,1-1.59,0c-.16-.05-.24-.14-.24-.26V21.7a5.35,5.35,0,0,0-.11-1.21,1.38,1.38,0,0,0-.38-.67,1.49,1.49,0,0,0-.7-.35,5.17,5.17,0,0,0-1.16-.11H35.78c-.11,0-.18-.07-.23-.21a2.48,2.48,0,0,1-.06-.65,2,2,0,0,1,.07-.65c0-.14.11-.2.22-.2h2.95a8.57,8.57,0,0,1,2.07.21,3,3,0,0,1,1.29.64,2.52,2.52,0,0,1,.7,1.15,6.55,6.55,0,0,1,.22,1.9Zm-5.36,0q0,.2-.24.27a2.92,2.92,0,0,1-.79.07,3,3,0,0,1-.8-.07q-.24-.07-.24-.27V21.66c0-.12.08-.21.24-.26a3,3,0,0,1,.8-.07,2.92,2.92,0,0,1,.79.07q.24.08.24.27Z"/><path class="cls-2" d="M50.89,21.79c0,1.1-.09,2.46-.26,4.09a.78.78,0,0,1-.19.46.59.59,0,0,1-.43.15H44.57c-.1,0-.17-.07-.21-.2a2.44,2.44,0,0,1-.06-.64,2.81,2.81,0,0,1,.06-.68q.07-.21.21-.21h4.1c.1-1.23.14-2.18.15-2.86a6.4,6.4,0,0,0-.16-1.68,1.17,1.17,0,0,0-.58-.7,3.41,3.41,0,0,0-1.35-.2,17.65,17.65,0,0,0-1.83.12.21.21,0,0,1-.23-.17,2.41,2.41,0,0,1-.06-.66,2.21,2.21,0,0,1,.07-.66.27.27,0,0,1,.24-.2,14.47,14.47,0,0,1,1.92-.14,6.42,6.42,0,0,1,2.47.38,2.21,2.21,0,0,1,1.22,1.22A7,7,0,0,1,50.89,21.79Z"/><path class="cls-2" d="M54.77,22.68a.28.28,0,0,1-.23.27,3.05,3.05,0,0,1-.8.07,2.9,2.9,0,0,1-.8-.08c-.16-.05-.24-.14-.24-.26V18c0-.12.08-.21.24-.26a4,4,0,0,1,1.6,0c.15.06.23.14.23.26Z"/><path class="cls-2" d="M62.12,26.23a.29.29,0,0,1-.24.26,3.05,3.05,0,0,1-.8.07,3,3,0,0,1-.8-.07c-.16,0-.23-.14-.23-.26V21.4A7.19,7.19,0,0,0,60,20.26a1.14,1.14,0,0,0-.26-.54,1.08,1.08,0,0,0-.52-.28,4,4,0,0,0-1-.09c-.55,0-1.23,0-2,.1a.22.22,0,0,1-.22-.18,2.07,2.07,0,0,1-.07-.66,2.34,2.34,0,0,1,.07-.67.27.27,0,0,1,.24-.19c.72-.07,1.41-.11,2.08-.11a7.45,7.45,0,0,1,1.88.19,2.46,2.46,0,0,1,1.14.58,2.22,2.22,0,0,1,.61,1.06,7.2,7.2,0,0,1,.19,1.81Z"/><path class="cls-2" d="M67,24.75a2.29,2.29,0,0,0,1.11-.4,1.91,1.91,0,0,0,.58-.91,7.39,7.39,0,0,0,.3-1.7c.06-.73.09-1.74.09-3V18c0-.11.08-.19.24-.23a3.47,3.47,0,0,1,.79-.07,4.08,4.08,0,0,1,.79.07q.25.07.24.24v.69a25.74,25.74,0,0,1-.24,4,6.3,6.3,0,0,1-.77,2.31,3,3,0,0,1-1.46,1.22,7.13,7.13,0,0,1-2.57.37H63.45c-.1,0-.17-.07-.21-.2a2.5,2.5,0,0,1-.06-.64,2.75,2.75,0,0,1,.06-.68q.07-.21.21-.21H65l-1.28-6.57a.58.58,0,0,1,0-.38A.42.42,0,0,1,64,17.7a5.11,5.11,0,0,1,.7,0,4.1,4.1,0,0,1,.93.06.38.38,0,0,1,.23.33Z"/><path class="cls-2" d="M77.18,26.54a.58.58,0,0,1-.44-.16.6.6,0,0,1-.15-.44V18.4a.63.63,0,0,1,.14-.43.55.55,0,0,1,.42-.18,29.77,29.77,0,0,1,3-.11,7.44,7.44,0,0,1,2,.22,2.91,2.91,0,0,1,1.26.66,2.66,2.66,0,0,1,.69,1.18,7.07,7.07,0,0,1,.21,1.9V26a.59.59,0,0,1-.16.45.57.57,0,0,1-.42.16Zm5-4.76a4.62,4.62,0,0,0-.18-1.51,1.25,1.25,0,0,0-.64-.68,3.4,3.4,0,0,0-1.3-.2c-.54,0-1,0-1.44,0v5.4h3.56Z"/><path class="cls-2" d="M88.18,22.75c0,.12-.08.21-.24.26a2.56,2.56,0,0,1-.79.07,3,3,0,0,1-.8-.07q-.24-.07-.24-.27V18c0-.13.08-.21.24-.26a2.51,2.51,0,0,1,.8-.08,2.82,2.82,0,0,1,.79.08c.16,0,.24.14.24.26Z"/><path class="cls-2" d="M92.26,22.76c0,.12-.08.21-.24.26a2.92,2.92,0,0,1-.79.07,3,3,0,0,1-.8-.07q-.24-.07-.24-.27V18c0-.12.08-.2.24-.26a3,3,0,0,1,.8-.07,2.59,2.59,0,0,1,.8.08c.15.05.23.14.23.26Z"/><path class="cls-2" d="M93.8,19.47c-.11,0-.18-.07-.22-.2a2.59,2.59,0,0,1-.06-.65,2.52,2.52,0,0,1,.06-.66c0-.13.12-.2.22-.2h3.89a6.68,6.68,0,0,1,2.62.44,2.9,2.9,0,0,1,1.5,1.36,5.34,5.34,0,0,1,.48,2.47,6.09,6.09,0,0,1-.5,2.56,3.56,3.56,0,0,1-1.44,1.62,4.33,4.33,0,0,1-2.26.55,4.5,4.5,0,0,1-2.2-.49,3,3,0,0,1-1.3-1.46,6.14,6.14,0,0,1-.42-2.44,6,6,0,0,1,.71-2.91Zm3.2,0a5.39,5.39,0,0,0-.7,2.78,4.72,4.72,0,0,0,.2,1.57,1.81,1.81,0,0,0,2.75.89,2,2,0,0,0,.68-1,4.94,4.94,0,0,0,.23-1.59,4,4,0,0,0-.25-1.59,1.6,1.6,0,0,0-.81-.83,3.66,3.66,0,0,0-1.51-.26Z"/><path class="cls-2" d="M105.92,26.31q0,.2-.24.27a3.4,3.4,0,0,1-.79.07,2.85,2.85,0,0,1-.8-.08c-.16-.05-.24-.14-.24-.26l0-8.24c0-.12.08-.21.23-.26a3,3,0,0,1,.81-.08,2.82,2.82,0,0,1,.79.08c.16.06.24.14.24.27Z"/><path class="cls-2" d="M117,26.34c0,.12-.08.21-.24.26a3,3,0,0,1-.8.07,2.9,2.9,0,0,1-.8-.08c-.15-.05-.23-.13-.23-.25V21.5a6.09,6.09,0,0,0-.07-1.13,1,1,0,0,0-.26-.54,1,1,0,0,0-.52-.28,4,4,0,0,0-1-.09q-.81,0-2,.09a.21.21,0,0,1-.22-.17,2.52,2.52,0,0,1-.06-.66,2.45,2.45,0,0,1,.06-.67.29.29,0,0,1,.24-.19c.72-.07,1.42-.11,2.09-.11a7.42,7.42,0,0,1,1.87.19,2.46,2.46,0,0,1,1.14.58,2.1,2.1,0,0,1,.61,1.06,6.71,6.71,0,0,1,.19,1.81Z"/><path class="cls-2" d="M121,26.34a.26.26,0,0,1-.23.26,2.59,2.59,0,0,1-.8.08,2.9,2.9,0,0,1-.8-.08q-.24-.08-.24-.27l0-8.23c0-.12.08-.21.24-.26a2.85,2.85,0,0,1,.8-.08,2.82,2.82,0,0,1,.79.08c.16.06.24.14.24.27Z"/><path class="cls-2" d="M125.16,19A5.85,5.85,0,0,1,126.59,18a3.13,3.13,0,0,1,1.39-.34,2.63,2.63,0,0,1,1.61.47,2.76,2.76,0,0,1,.91,1.43,9.1,9.1,0,0,1,.29,2.51c0,.63,0,1.29-.06,2s-.09,1.36-.15,2a.72.72,0,0,1-.18.46.58.58,0,0,1-.44.16h-3.51c-.11,0-.18-.07-.23-.2a2.14,2.14,0,0,1-.06-.66,2.52,2.52,0,0,1,.06-.66q.06-.21.21-.21h2.18c.07-1.05.11-2,.11-2.73a8.7,8.7,0,0,0-.12-1.65,1.57,1.57,0,0,0-.4-.85,1,1,0,0,0-.74-.26,1.7,1.7,0,0,0-.88.29,5.56,5.56,0,0,0-1,.94l-.94,5.69a.34.34,0,0,1-.27.26,3,3,0,0,1-.81.08,3.33,3.33,0,0,1-.79-.08c-.15-.05-.21-.14-.19-.27l.89-5.4a2.2,2.2,0,0,0,0-.57,2.93,2.93,0,0,0-.19-.61l-.49-1.15a2,2,0,0,1-.15-.48.23.23,0,0,1,.05-.22.49.49,0,0,1,.27-.11,5,5,0,0,1,.65,0,4.22,4.22,0,0,1,.89.06.46.46,0,0,1,.31.28Z"/><path class="cls-2" d="M135.12,25a9.12,9.12,0,0,0,1.53.13,4.05,4.05,0,0,0,2.37-.62,3.71,3.71,0,0,0,1.36-2,11.4,11.4,0,0,0,.45-3.41v-1c0-.12.08-.2.24-.26a3.09,3.09,0,0,1,.81-.07,2.87,2.87,0,0,1,.79.07.27.27,0,0,1,.22.26v1a11.62,11.62,0,0,1-.71,4.31A5.16,5.16,0,0,1,140.06,26a6.71,6.71,0,0,1-3.53.85c-.41,0-.87,0-1.37-.08s-.89-.11-1.16-.17a1.2,1.2,0,0,1-.6-.25.75.75,0,0,1-.22-.48l-1-7.57a.33.33,0,0,1,.31-.44,3.1,3.1,0,0,1,.61,0,3.45,3.45,0,0,1,.88.08c.17.05.26.13.27.25l.44,3.26a2.61,2.61,0,0,0,1.24-.17,1.11,1.11,0,0,0,.58-.71,5.79,5.79,0,0,0,.17-1.62v-.75a.27.27,0,0,1,.21-.26,4.05,4.05,0,0,1,1.5,0,.27.27,0,0,1,.21.26v.71a7.09,7.09,0,0,1-.36,2.54,2.28,2.28,0,0,1-1.15,1.28,4.59,4.59,0,0,1-2.21.29Z"/></svg>