<svg id="Layer_1" data-name="Layer 1" xmlns="http://www.w3.org/2000/svg" viewBox="0 0 84.05 39.84"><defs><style>.cls-1{fill:#40cc54;}.cls-2{fill:#47e264;}.cls-3{fill:#fff;}</style></defs><title>Artboard 108</title><rect class="cls-1" x="0.02" y="2.14" width="83.99" height="37.63" rx="8.46" transform="translate(0.04 -0.08) rotate(0.11)"/><rect class="cls-2" x="0.03" y="0.07" width="83.99" height="37.63" rx="5.56" transform="translate(0.04 -0.08) rotate(0.11)"/><path class="cls-3" d="M31.34,24.24c0,.13-.09.22-.25.28a3.4,3.4,0,0,1-.85.07,2.89,2.89,0,0,1-.85-.08q-.24-.07-.24-.27V19.12a6.68,6.68,0,0,0-.08-1.2,1,1,0,0,0-.82-.87,4.5,4.5,0,0,0-1-.09c-.57,0-1.29,0-2.16.1-.11,0-.19-.06-.23-.19a2.28,2.28,0,0,1-.07-.7,2.55,2.55,0,0,1,.07-.7.28.28,0,0,1,.26-.2,21,21,0,0,1,2.2-.12,8.93,8.93,0,0,1,2,.19,2.82,2.82,0,0,1,1.21.62,2.32,2.32,0,0,1,.64,1.13,7.43,7.43,0,0,1,.2,1.91Z"/><path class="cls-3" d="M35.61,24.24c0,.14-.08.23-.25.28a2.86,2.86,0,0,1-.84.08,3.23,3.23,0,0,1-.85-.08c-.17-.05-.25-.15-.25-.28l0-8.72c0-.13.08-.22.25-.27a4,4,0,0,1,1.69,0c.16.05.25.15.25.27Z"/><path class="cls-3" d="M40,16.52a5.79,5.79,0,0,1,1.52-1.12A3.19,3.19,0,0,1,43,15a2.78,2.78,0,0,1,1.71.5,2.88,2.88,0,0,1,1,1.52A9.2,9.2,0,0,1,46,19.7c0,.66,0,1.37-.06,2.11s-.1,1.44-.16,2.11a.76.76,0,0,1-.2.49.58.58,0,0,1-.45.16H41.38a.24.24,0,0,1-.24-.21,2,2,0,0,1-.07-.7,2.89,2.89,0,0,1,.06-.7c0-.14.12-.22.22-.22h2.31c.08-1.11.12-2.08.12-2.89a8.84,8.84,0,0,0-.13-1.75,1.72,1.72,0,0,0-.42-.9,1.09,1.09,0,0,0-.78-.27,1.75,1.75,0,0,0-.94.31,5.75,5.75,0,0,0-1.1,1l-1,6c0,.14-.12.23-.29.28a3,3,0,0,1-.86.08,3.11,3.11,0,0,1-.83-.08c-.16-.05-.23-.15-.21-.28l1-5.72a2.52,2.52,0,0,0,0-.61,2.93,2.93,0,0,0-.21-.64l-.51-1.22a2.07,2.07,0,0,1-.16-.51.22.22,0,0,1,.06-.23.52.52,0,0,1,.28-.12,5.43,5.43,0,0,1,.68,0,4.73,4.73,0,0,1,1,.06.49.49,0,0,1,.33.3Z"/><path class="cls-3" d="M50.56,22.84a11.44,11.44,0,0,0,1.62.14,4.28,4.28,0,0,0,2.51-.67,3.9,3.9,0,0,0,1.43-2.06,11.41,11.41,0,0,0,.48-3.62V15.56c0-.13.09-.22.26-.27a3.32,3.32,0,0,1,.86-.08,3.11,3.11,0,0,1,.83.08c.16.05.23.14.23.27v1A12,12,0,0,1,58,21.14a5.54,5.54,0,0,1-2.24,2.72,7.17,7.17,0,0,1-3.74.89c-.43,0-.92,0-1.45-.08s-.94-.12-1.23-.18a1.32,1.32,0,0,1-.63-.27.82.82,0,0,1-.24-.5l-1.1-8a.42.42,0,0,1,.05-.32.41.41,0,0,1,.28-.15,3.46,3.46,0,0,1,.64,0,3.91,3.91,0,0,1,.94.08c.17.05.27.15.28.27L50.06,19a3,3,0,0,0,1.32-.17,1.25,1.25,0,0,0,.61-.76,6,6,0,0,0,.18-1.71v-.8a.27.27,0,0,1,.22-.27,2.47,2.47,0,0,1,.8-.08,2.82,2.82,0,0,1,.79.08.27.27,0,0,1,.22.27v.75A7.57,7.57,0,0,1,53.82,19a2.4,2.4,0,0,1-1.22,1.35,5,5,0,0,1-2.34.32Z"/></svg>