<svg id="Layer_1" data-name="Layer 1" xmlns="http://www.w3.org/2000/svg" viewBox="0 0 178.06 47.12"><defs><style>.cls-1{fill:#30b76d;}.cls-2{fill:#87e0b3;}.cls-3{fill:#fff;}</style></defs><title>Artboard 104</title><rect class="cls-1" x="66.63" y="-64.44" width="44.8" height="178" rx="7.88" transform="translate(64.29 113.54) rotate(-89.89)"/><path class="cls-1" d="M18.6,31.06c0,.13-.08.21-.23.26a2.59,2.59,0,0,1-.8.08,2.9,2.9,0,0,1-.8-.08c-.16-.05-.24-.14-.24-.26l0-11.2c0-.12.08-.21.23-.26a3,3,0,0,1,.81-.08,2.87,2.87,0,0,1,.79.08c.16.06.24.14.24.27Z"/><path class="cls-1" d="M26.53,23.71a40.37,40.37,0,0,1-.25,4.08.82.82,0,0,1-.19.47.65.65,0,0,1-.43.14H20.21c-.09,0-.16-.06-.2-.2a1.94,1.94,0,0,1-.07-.63,2.59,2.59,0,0,1,.07-.68q.07-.21.21-.21h4.1c.09-1.23.14-2.19.15-2.87a6,6,0,0,0-.17-1.68,1.08,1.08,0,0,0-.57-.69,3.21,3.21,0,0,0-1.35-.21,17.65,17.65,0,0,0-1.83.12c-.11,0-.19,0-.23-.17a2.41,2.41,0,0,1-.06-.66,2,2,0,0,1,.07-.66.28.28,0,0,1,.24-.2,14.45,14.45,0,0,1,1.91-.14A6.64,6.64,0,0,1,25,19.9a2.3,2.3,0,0,1,1.22,1.23A6.83,6.83,0,0,1,26.53,23.71Z"/><path class="cls-1" d="M30.48,28.12q0,.19-.24.27a2.92,2.92,0,0,1-.79.07,3,3,0,0,1-.8-.07q-.24-.08-.24-.27l0-8.24c0-.12.08-.2.23-.26a3.09,3.09,0,0,1,.81-.07,2.52,2.52,0,0,1,.79.08c.16.05.24.14.24.26Z"/><path class="cls-1" d="M35.36,25.55a4.19,4.19,0,0,1-.27,1.64,1.77,1.77,0,0,1-.81.93,3.09,3.09,0,0,1-1.47.3h-.69c-.1,0-.18-.07-.23-.2a2.24,2.24,0,0,1-.07-.64,2.65,2.65,0,0,1,.07-.68q.08-.21.21-.21h.54a.55.55,0,0,0,.5-.25,1.57,1.57,0,0,0,.16-.78V21.31H32.17c-.11,0-.18-.06-.22-.2a2,2,0,0,1-.07-.65A2.9,2.9,0,0,1,32,19.8c0-.13.12-.2.22-.2h4.27A6.77,6.77,0,0,1,38.9,20a2.39,2.39,0,0,1,1.28,1.18,5.6,5.6,0,0,1,.38,2.35v4.64c0,.12-.07.21-.23.26a3,3,0,0,1-.8.07,2.55,2.55,0,0,1-.8-.08c-.15,0-.23-.13-.23-.25V23.66a4.39,4.39,0,0,0-.18-1.47,1.22,1.22,0,0,0-.65-.67,3.55,3.55,0,0,0-1.35-.2h-1Z"/><path class="cls-1" d="M53.66,28.18c0,.12-.08.21-.24.26a3.47,3.47,0,0,1-.79.07,3,3,0,0,1-.8-.08c-.16-.05-.24-.13-.24-.26V23.68a5.35,5.35,0,0,0-.11-1.21,1.34,1.34,0,0,0-.38-.66,1.4,1.4,0,0,0-.7-.35,4.64,4.64,0,0,0-1.16-.11H46.44c-.11,0-.18-.07-.23-.2a2.62,2.62,0,0,1-.06-.66,2,2,0,0,1,.07-.65c0-.13.11-.2.22-.2h3a9.17,9.17,0,0,1,2.07.2,3,3,0,0,1,1.29.64,2.52,2.52,0,0,1,.7,1.15,6.63,6.63,0,0,1,.22,1.91Zm-5.36,0c0,.13-.08.21-.24.26a2.82,2.82,0,0,1-.79.08,2.85,2.85,0,0,1-.8-.08q-.24-.08-.24-.27v-4.5q0-.2.24-.27a3,3,0,0,1,.8-.07,2.82,2.82,0,0,1,.79.08c.16,0,.24.13.24.26Z"/><path class="cls-1" d="M61.55,23.78c0,1.09-.09,2.45-.26,4.08a.78.78,0,0,1-.19.46.59.59,0,0,1-.43.15H55.23c-.1,0-.17-.06-.21-.2a2.39,2.39,0,0,1-.06-.64A2.66,2.66,0,0,1,55,27q.07-.21.21-.21h4.1c.1-1.22.15-2.18.15-2.86a6.5,6.5,0,0,0-.16-1.68,1.17,1.17,0,0,0-.58-.7,3.41,3.41,0,0,0-1.35-.2,17.65,17.65,0,0,0-1.83.12.21.21,0,0,1-.23-.17,2.41,2.41,0,0,1-.06-.66,2.31,2.31,0,0,1,.07-.66.28.28,0,0,1,.24-.2,14.47,14.47,0,0,1,1.92-.14A6.62,6.62,0,0,1,60,20a2.25,2.25,0,0,1,1.22,1.22A7.07,7.07,0,0,1,61.55,23.78Z"/><path class="cls-1" d="M65.43,24.66a.28.28,0,0,1-.23.27,3.05,3.05,0,0,1-.8.07,3,3,0,0,1-.8-.07q-.24-.08-.24-.27V20c0-.12.08-.2.24-.26a2.63,2.63,0,0,1,.8-.07,2.55,2.55,0,0,1,.8.08c.15.05.23.14.23.26Z"/><path class="cls-1" d="M72.78,28.22c0,.12-.08.2-.24.25a3,3,0,0,1-.8.08,3.3,3.3,0,0,1-.8-.08c-.16,0-.23-.14-.23-.26V23.38a7.28,7.28,0,0,0-.07-1.14,1.14,1.14,0,0,0-.26-.54,1.17,1.17,0,0,0-.52-.28,4.58,4.58,0,0,0-1-.09c-.55,0-1.23,0-2,.1-.11,0-.18-.05-.22-.18a2,2,0,0,1-.07-.66,2.21,2.21,0,0,1,.07-.66.26.26,0,0,1,.24-.19A18.8,18.8,0,0,1,69,19.62a8.51,8.51,0,0,1,1.88.19,2.56,2.56,0,0,1,1.14.58,2.22,2.22,0,0,1,.61,1.06,6.79,6.79,0,0,1,.19,1.82Z"/><path class="cls-1" d="M77.68,26.73a2.19,2.19,0,0,0,1.11-.4,1.87,1.87,0,0,0,.58-.91,7.29,7.29,0,0,0,.3-1.7c.06-.72.09-1.74.09-3v-.74c0-.11.08-.18.24-.23a3.56,3.56,0,0,1,.79-.06,3.1,3.1,0,0,1,.8.07c.15,0,.23.12.23.23v.69a25.65,25.65,0,0,1-.24,4,6.43,6.43,0,0,1-.77,2.32,3,3,0,0,1-1.46,1.21,7.11,7.11,0,0,1-2.57.38H74.11c-.1,0-.17-.07-.21-.2a2.44,2.44,0,0,1-.06-.64A2.81,2.81,0,0,1,73.9,27q.07-.21.21-.21h1.52L74.35,20.2a.55.55,0,0,1,0-.37.35.35,0,0,1,.27-.14,3.63,3.63,0,0,1,.7-.05,4.52,4.52,0,0,1,.93.07c.12,0,.2.14.23.33Z"/><path class="cls-1" d="M89.21,22.15A4.47,4.47,0,0,1,89,23.47a11,11,0,0,1-.7,1.67l-1.56,3.05a.54.54,0,0,1-.39.31,4.09,4.09,0,0,1-.92.07,3.1,3.1,0,0,1-.74-.06.25.25,0,0,1-.21-.25.84.84,0,0,1,.11-.33l1.59-3.05a16.52,16.52,0,0,0,.72-1.55,3,3,0,0,0,.21-1A.89.89,0,0,0,87,21.8a.85.85,0,0,0-.44-.29,2.81,2.81,0,0,0-.79-.09H83.36a.54.54,0,0,1-.43-.16.61.61,0,0,1-.16-.45V17.3c0-.12.08-.21.23-.26a2.9,2.9,0,0,1,.8-.08,2.79,2.79,0,0,1,.81.09c.15.05.23.13.23.26v2.4H86a6.31,6.31,0,0,1,1.48.15,2.51,2.51,0,0,1,1,.44,1.73,1.73,0,0,1,.55.75A3,3,0,0,1,89.21,22.15Z"/><path class="cls-1" d="M99.74,28.27c0,.12-.08.21-.23.25a3,3,0,0,1-.81.08,2.82,2.82,0,0,1-.79-.08c-.16-.05-.24-.13-.24-.26V23.43a6.09,6.09,0,0,0-.07-1.13,1,1,0,0,0-.25-.54,1.07,1.07,0,0,0-.53-.28,4,4,0,0,0-1-.09c-.54,0-1.22,0-2,.09-.11,0-.18-.05-.23-.18a2.41,2.41,0,0,1-.06-.66,2,2,0,0,1,.07-.66.26.26,0,0,1,.24-.19,18.73,18.73,0,0,1,2.08-.11,7.92,7.92,0,0,1,1.87.18,2.65,2.65,0,0,1,1.15.58,2.34,2.34,0,0,1,.61,1.07,7.21,7.21,0,0,1,.18,1.81Z"/><path class="cls-1" d="M103.78,28.27c0,.12-.08.21-.24.26a2.87,2.87,0,0,1-.79.08,3,3,0,0,1-.81-.08.28.28,0,0,1-.23-.27V20c0-.12.08-.21.24-.26a4,4,0,0,1,1.6,0c.15.05.23.14.23.26Z"/><path class="cls-1" d="M112.78,27.74a2.5,2.5,0,0,1-.06.64c0,.13-.12.2-.22.2l-7.18,0c-.1,0-.17-.07-.21-.2a2.39,2.39,0,0,1-.06-.64,2.66,2.66,0,0,1,.06-.67c0-.15.12-.22.21-.22h4.17a10.39,10.39,0,0,1-.23-2.26v-.89a7.63,7.63,0,0,0-.08-1.36,1.13,1.13,0,0,0-.25-.55,1.11,1.11,0,0,0-.54-.28,3.33,3.33,0,0,0-.93-.1l-.87,0-.91.09c-.1,0-.18,0-.22-.16a2.55,2.55,0,0,1-.06-.67,2.28,2.28,0,0,1,.06-.65.27.27,0,0,1,.24-.2,8.58,8.58,0,0,1,.92-.11c.32,0,.62,0,.91,0a7.42,7.42,0,0,1,1.87.2,2.53,2.53,0,0,1,1.15.61,2.38,2.38,0,0,1,.6,1.1,8.16,8.16,0,0,1,.18,2v1a12.76,12.76,0,0,0,.21,2.26h1q.15,0,.21.21A2.26,2.26,0,0,1,112.78,27.74Z"/><path class="cls-1" d="M117,26.81a2.29,2.29,0,0,0,1.1-.4,1.91,1.91,0,0,0,.58-.91,7.39,7.39,0,0,0,.3-1.7c.06-.73.09-1.74.1-3.05V20c0-.11.08-.19.24-.23a3.51,3.51,0,0,1,.8-.07,4.27,4.27,0,0,1,.79.07q.24.08.24.24v.69a26.86,26.86,0,0,1-.25,4,6.12,6.12,0,0,1-.77,2.31,3,3,0,0,1-1.46,1.22,7.08,7.08,0,0,1-2.56.37h-2.69c-.1,0-.17-.07-.21-.2a2.5,2.5,0,0,1-.06-.64,2.26,2.26,0,0,1,.07-.68c0-.14.11-.21.2-.21H115l-1.28-6.57a.57.57,0,0,1,0-.38.39.39,0,0,1,.26-.14,5.29,5.29,0,0,1,.71,0,4,4,0,0,1,.92.06c.13,0,.2.15.23.34Z"/><path class="cls-1" d="M125,28.31a.26.26,0,0,1-.23.26,3,3,0,0,1-.8.08,2.9,2.9,0,0,1-.8-.08c-.16-.05-.24-.14-.24-.26l0-8.24c0-.12.08-.21.24-.26a2.85,2.85,0,0,1,.8-.08,2.82,2.82,0,0,1,.79.08c.16.06.24.14.24.26Z"/><path class="cls-1" d="M136,28.34c0,.12-.08.21-.24.26a3,3,0,0,1-.8.07,2.9,2.9,0,0,1-.8-.08c-.15-.05-.23-.13-.23-.25V23.5a6.09,6.09,0,0,0-.07-1.13,1.09,1.09,0,0,0-.25-.54,1.12,1.12,0,0,0-.53-.28,4,4,0,0,0-1-.09q-.81,0-2,.09a.21.21,0,0,1-.22-.17,2.52,2.52,0,0,1-.06-.66,2.45,2.45,0,0,1,.06-.67.29.29,0,0,1,.24-.19c.72-.07,1.42-.11,2.09-.11a7.92,7.92,0,0,1,1.87.18,2.77,2.77,0,0,1,1.15.58,2.34,2.34,0,0,1,.61,1.07,7.21,7.21,0,0,1,.18,1.81Z"/><path class="cls-1" d="M140,28.34a.26.26,0,0,1-.23.26,4,4,0,0,1-1.6,0c-.16-.05-.24-.14-.23-.27V20.1c0-.12.08-.21.24-.26a2.85,2.85,0,0,1,.8-.08,2.82,2.82,0,0,1,.79.08c.16.06.24.14.24.26Z"/><path class="cls-1" d="M144.19,21A6,6,0,0,1,145.62,20a3.13,3.13,0,0,1,1.39-.34,2.63,2.63,0,0,1,1.61.47,2.76,2.76,0,0,1,.91,1.43,8.69,8.69,0,0,1,.29,2.51c0,.63,0,1.29-.06,2s-.09,1.36-.15,2a.72.72,0,0,1-.18.46.56.56,0,0,1-.43.16h-3.52c-.11,0-.18-.07-.23-.2a3.66,3.66,0,0,1,0-1.32q.06-.21.21-.21h2.18c.07-1.05.11-2,.11-2.73a8.7,8.7,0,0,0-.12-1.65,1.64,1.64,0,0,0-.39-.85,1.05,1.05,0,0,0-.75-.26,1.7,1.7,0,0,0-.88.29,5.55,5.55,0,0,0-1,.94l-.95,5.69a.33.33,0,0,1-.27.26,3.09,3.09,0,0,1-.81.07,3,3,0,0,1-.79-.07c-.15-.05-.21-.14-.19-.27l.89-5.4a2.2,2.2,0,0,0,0-.57,2.93,2.93,0,0,0-.19-.61l-.49-1.15a2,2,0,0,1-.15-.48.23.23,0,0,1,.05-.22.49.49,0,0,1,.28-.11,4.71,4.71,0,0,1,.64,0,4.15,4.15,0,0,1,.89.06.44.44,0,0,1,.31.28Z"/><path class="cls-1" d="M154.15,27a9.12,9.12,0,0,0,1.53.13,4.05,4.05,0,0,0,2.37-.63,3.65,3.65,0,0,0,1.36-2,11.08,11.08,0,0,0,.45-3.41v-1c0-.12.08-.2.24-.26a3.09,3.09,0,0,1,.81-.07,2.87,2.87,0,0,1,.79.07.27.27,0,0,1,.22.26v1a11.42,11.42,0,0,1-.71,4.31A5.16,5.16,0,0,1,159.09,28a6.71,6.71,0,0,1-3.53.85c-.41,0-.86,0-1.36-.08s-.89-.11-1.17-.17a1.2,1.2,0,0,1-.6-.25.75.75,0,0,1-.22-.48l-1-7.57a.33.33,0,0,1,.31-.44,3.1,3.1,0,0,1,.61,0,3.58,3.58,0,0,1,.88.07c.17.06.26.14.27.26l.44,3.26a2.68,2.68,0,0,0,1.25-.17,1.12,1.12,0,0,0,.57-.71,5.79,5.79,0,0,0,.17-1.62v-.75a.27.27,0,0,1,.21-.26,4.05,4.05,0,0,1,1.5,0,.27.27,0,0,1,.21.26v.71a7.09,7.09,0,0,1-.36,2.54,2.28,2.28,0,0,1-1.15,1.28,4.59,4.59,0,0,1-2.21.29Z"/><rect class="cls-2" x="0.03" y="0.16" width="178" height="44.8" rx="7.88" transform="translate(0.04 -0.18) rotate(0.11)"/><path class="cls-3" d="M18.6,29.06c0,.13-.08.21-.23.26a2.59,2.59,0,0,1-.8.08,2.9,2.9,0,0,1-.8-.08c-.16-.05-.24-.14-.24-.26l0-11.2c0-.12.08-.21.23-.26a3,3,0,0,1,.81-.08,2.87,2.87,0,0,1,.79.08c.16.06.24.14.24.27Z"/><path class="cls-3" d="M26.53,21.71a40.37,40.37,0,0,1-.25,4.08.82.82,0,0,1-.19.47.65.65,0,0,1-.43.14H20.21c-.09,0-.16-.06-.2-.2a1.94,1.94,0,0,1-.07-.63,2.59,2.59,0,0,1,.07-.68q.07-.21.21-.21h4.1c.09-1.23.14-2.19.15-2.87a6,6,0,0,0-.17-1.68,1.08,1.08,0,0,0-.57-.69,3.21,3.21,0,0,0-1.35-.21,17.65,17.65,0,0,0-1.83.12c-.11,0-.19,0-.23-.17a2.41,2.41,0,0,1-.06-.66,2,2,0,0,1,.07-.66.28.28,0,0,1,.24-.2,14.45,14.45,0,0,1,1.91-.14A6.64,6.64,0,0,1,25,17.9a2.3,2.3,0,0,1,1.22,1.23A6.83,6.83,0,0,1,26.53,21.71Z"/><path class="cls-3" d="M30.48,26.12q0,.19-.24.27a2.92,2.92,0,0,1-.79.07,3,3,0,0,1-.8-.07q-.24-.08-.24-.27l0-8.24c0-.12.08-.2.23-.26a3.09,3.09,0,0,1,.81-.07,2.52,2.52,0,0,1,.79.08c.16.05.24.14.24.26Z"/><path class="cls-3" d="M35.36,23.55a4.19,4.19,0,0,1-.27,1.64,1.77,1.77,0,0,1-.81.93,3.09,3.09,0,0,1-1.47.3h-.69c-.1,0-.18-.07-.23-.2a2.24,2.24,0,0,1-.07-.64,2.65,2.65,0,0,1,.07-.68q.08-.21.21-.21h.54a.55.55,0,0,0,.5-.25,1.57,1.57,0,0,0,.16-.78V19.31H32.17c-.11,0-.18-.06-.22-.2a2,2,0,0,1-.07-.65A2.9,2.9,0,0,1,32,17.8c0-.13.12-.2.22-.2h4.27A6.77,6.77,0,0,1,38.9,18a2.39,2.39,0,0,1,1.28,1.18,5.6,5.6,0,0,1,.38,2.35v4.64c0,.12-.07.21-.23.26a3,3,0,0,1-.8.07,2.55,2.55,0,0,1-.8-.08c-.15,0-.23-.13-.23-.25V21.66a4.39,4.39,0,0,0-.18-1.47,1.22,1.22,0,0,0-.65-.67,3.55,3.55,0,0,0-1.35-.2h-1Z"/><path class="cls-3" d="M53.66,26.18c0,.12-.08.21-.24.26a3.47,3.47,0,0,1-.79.07,3,3,0,0,1-.8-.08c-.16-.05-.24-.13-.24-.26V21.68a5.35,5.35,0,0,0-.11-1.21,1.34,1.34,0,0,0-.38-.66,1.4,1.4,0,0,0-.7-.35,4.64,4.64,0,0,0-1.16-.11H46.44c-.11,0-.18-.07-.23-.2a2.62,2.62,0,0,1-.06-.66,2,2,0,0,1,.07-.65c0-.13.11-.2.22-.2h3a9.17,9.17,0,0,1,2.07.2,3,3,0,0,1,1.29.64,2.52,2.52,0,0,1,.7,1.15,6.63,6.63,0,0,1,.22,1.91Zm-5.36,0c0,.13-.08.21-.24.26a2.82,2.82,0,0,1-.79.08,2.85,2.85,0,0,1-.8-.08q-.24-.08-.24-.27v-4.5q0-.2.24-.27a3,3,0,0,1,.8-.07,2.82,2.82,0,0,1,.79.08c.16,0,.24.13.24.26Z"/><path class="cls-3" d="M61.55,21.78c0,1.09-.09,2.45-.26,4.08a.78.78,0,0,1-.19.46.59.59,0,0,1-.43.15H55.23c-.1,0-.17-.06-.21-.2a2.39,2.39,0,0,1-.06-.64A2.66,2.66,0,0,1,55,25q.07-.21.21-.21h4.1c.1-1.22.15-2.18.15-2.86a6.5,6.5,0,0,0-.16-1.68,1.17,1.17,0,0,0-.58-.7,3.41,3.41,0,0,0-1.35-.2,17.65,17.65,0,0,0-1.83.12.21.21,0,0,1-.23-.17,2.41,2.41,0,0,1-.06-.66,2.31,2.31,0,0,1,.07-.66.28.28,0,0,1,.24-.2,14.47,14.47,0,0,1,1.92-.14A6.62,6.62,0,0,1,60,18a2.25,2.25,0,0,1,1.22,1.22A7.07,7.07,0,0,1,61.55,21.78Z"/><path class="cls-3" d="M65.43,22.66a.28.28,0,0,1-.23.27,3.05,3.05,0,0,1-.8.07,3,3,0,0,1-.8-.07q-.24-.08-.24-.27V18c0-.12.08-.2.24-.26a2.63,2.63,0,0,1,.8-.07,2.55,2.55,0,0,1,.8.08c.15.05.23.14.23.26Z"/><path class="cls-3" d="M72.78,26.22c0,.12-.08.2-.24.25a3,3,0,0,1-.8.08,3.3,3.3,0,0,1-.8-.08c-.16,0-.23-.14-.23-.26V21.38a7.28,7.28,0,0,0-.07-1.14,1.14,1.14,0,0,0-.26-.54,1.17,1.17,0,0,0-.52-.28,4.58,4.58,0,0,0-1-.09c-.55,0-1.23,0-2,.1-.11,0-.18-.05-.22-.18a2,2,0,0,1-.07-.66,2.21,2.21,0,0,1,.07-.66.26.26,0,0,1,.24-.19A18.8,18.8,0,0,1,69,17.62a8.51,8.51,0,0,1,1.88.19,2.56,2.56,0,0,1,1.14.58,2.22,2.22,0,0,1,.61,1.06,6.79,6.79,0,0,1,.19,1.82Z"/><path class="cls-3" d="M77.68,24.73a2.19,2.19,0,0,0,1.11-.4,1.87,1.87,0,0,0,.58-.91,7.29,7.29,0,0,0,.3-1.7c.06-.72.09-1.74.09-3v-.74c0-.11.08-.18.24-.23a3.56,3.56,0,0,1,.79-.06,3.1,3.1,0,0,1,.8.07c.15,0,.23.12.23.23v.69a25.65,25.65,0,0,1-.24,4,6.43,6.43,0,0,1-.77,2.32,3,3,0,0,1-1.46,1.21,7.11,7.11,0,0,1-2.57.38H74.11c-.1,0-.17-.07-.21-.2a2.44,2.44,0,0,1-.06-.64A2.81,2.81,0,0,1,73.9,25q.07-.21.21-.21h1.52L74.35,18.2a.55.55,0,0,1,0-.37.35.35,0,0,1,.27-.14,3.63,3.63,0,0,1,.7-.05,4.52,4.52,0,0,1,.93.07c.12,0,.2.14.23.33Z"/><path class="cls-3" d="M89.21,20.15A4.47,4.47,0,0,1,89,21.47a11,11,0,0,1-.7,1.67l-1.56,3.05a.54.54,0,0,1-.39.31,4.09,4.09,0,0,1-.92.07,3.1,3.1,0,0,1-.74-.06.25.25,0,0,1-.21-.25.84.84,0,0,1,.11-.33l1.59-3.05a16.52,16.52,0,0,0,.72-1.55,3,3,0,0,0,.21-1A.89.89,0,0,0,87,19.8a.85.85,0,0,0-.44-.29,2.81,2.81,0,0,0-.79-.09H83.36a.54.54,0,0,1-.43-.16.61.61,0,0,1-.16-.45V15.3c0-.12.08-.21.23-.26a2.9,2.9,0,0,1,.8-.08,2.79,2.79,0,0,1,.81.09c.15,0,.23.13.23.26v2.4H86a6.31,6.31,0,0,1,1.48.15,2.51,2.51,0,0,1,1,.44,1.73,1.73,0,0,1,.55.75A3,3,0,0,1,89.21,20.15Z"/><path class="cls-3" d="M99.74,26.27c0,.12-.08.21-.23.25a3,3,0,0,1-.81.08,2.82,2.82,0,0,1-.79-.08c-.16-.05-.24-.13-.24-.26V21.43a6.09,6.09,0,0,0-.07-1.13,1,1,0,0,0-.25-.54,1.07,1.07,0,0,0-.53-.28,4,4,0,0,0-1-.09c-.54,0-1.22,0-2,.09-.11,0-.18-.05-.23-.18a2.41,2.41,0,0,1-.06-.66,2,2,0,0,1,.07-.66.26.26,0,0,1,.24-.19,18.73,18.73,0,0,1,2.08-.11,7.92,7.92,0,0,1,1.87.18,2.65,2.65,0,0,1,1.15.58,2.34,2.34,0,0,1,.61,1.07,7.21,7.21,0,0,1,.18,1.81Z"/><path class="cls-3" d="M103.78,26.27c0,.12-.08.21-.24.26a2.87,2.87,0,0,1-.79.08,3,3,0,0,1-.81-.08.28.28,0,0,1-.23-.27V18c0-.12.08-.21.24-.26a4,4,0,0,1,1.6,0c.15.05.23.14.23.26Z"/><path class="cls-3" d="M112.78,25.74a2.5,2.5,0,0,1-.06.64c0,.13-.12.2-.22.2l-7.18,0c-.1,0-.17-.07-.21-.2a2.39,2.39,0,0,1-.06-.64,2.66,2.66,0,0,1,.06-.67c0-.15.12-.22.21-.22h4.17a10.39,10.39,0,0,1-.23-2.26v-.89a7.63,7.63,0,0,0-.08-1.36,1.13,1.13,0,0,0-.25-.55,1.11,1.11,0,0,0-.54-.28,3.33,3.33,0,0,0-.93-.1l-.87,0-.91.09c-.1,0-.18,0-.22-.16a2.55,2.55,0,0,1-.06-.67,2.28,2.28,0,0,1,.06-.65.27.27,0,0,1,.24-.2,8.58,8.58,0,0,1,.92-.11c.32,0,.62,0,.91,0a7.42,7.42,0,0,1,1.87.2,2.53,2.53,0,0,1,1.15.61,2.38,2.38,0,0,1,.6,1.1,8.16,8.16,0,0,1,.18,2v1a12.76,12.76,0,0,0,.21,2.26h1q.15,0,.21.21A2.26,2.26,0,0,1,112.78,25.74Z"/><path class="cls-3" d="M117,24.81a2.29,2.29,0,0,0,1.1-.4,1.91,1.91,0,0,0,.58-.91,7.39,7.39,0,0,0,.3-1.7c.06-.73.09-1.74.1-3.05V18c0-.11.08-.19.24-.23a3.51,3.51,0,0,1,.8-.07,4.27,4.27,0,0,1,.79.07q.24.08.24.24v.69a26.86,26.86,0,0,1-.25,4,6.12,6.12,0,0,1-.77,2.31,3,3,0,0,1-1.46,1.22,7.08,7.08,0,0,1-2.56.37h-2.69c-.1,0-.17-.07-.21-.2a2.5,2.5,0,0,1-.06-.64,2.26,2.26,0,0,1,.07-.68c0-.14.11-.21.2-.21H115l-1.28-6.57a.57.57,0,0,1,0-.38.39.39,0,0,1,.26-.14,5.29,5.29,0,0,1,.71,0,4,4,0,0,1,.92.06c.13,0,.2.15.23.34Z"/><path class="cls-3" d="M125,26.31a.26.26,0,0,1-.23.26,3,3,0,0,1-.8.08,2.9,2.9,0,0,1-.8-.08c-.16-.05-.24-.14-.24-.26l0-8.24c0-.12.08-.21.24-.26a2.85,2.85,0,0,1,.8-.08,2.82,2.82,0,0,1,.79.08c.16.06.24.14.24.26Z"/><path class="cls-3" d="M136,26.34c0,.12-.08.21-.24.26a3,3,0,0,1-.8.07,2.9,2.9,0,0,1-.8-.08c-.15-.05-.23-.13-.23-.25V21.5a6.09,6.09,0,0,0-.07-1.13,1.09,1.09,0,0,0-.25-.54,1.12,1.12,0,0,0-.53-.28,4,4,0,0,0-1-.09q-.81,0-2,.09a.21.21,0,0,1-.22-.17,2.52,2.52,0,0,1-.06-.66,2.45,2.45,0,0,1,.06-.67.29.29,0,0,1,.24-.19c.72-.07,1.42-.11,2.09-.11a7.92,7.92,0,0,1,1.87.18,2.77,2.77,0,0,1,1.15.58,2.34,2.34,0,0,1,.61,1.07,7.21,7.21,0,0,1,.18,1.81Z"/><path class="cls-3" d="M140,26.34a.26.26,0,0,1-.23.26,4,4,0,0,1-1.6,0c-.16-.05-.24-.14-.23-.27V18.1c0-.12.08-.21.24-.26a2.85,2.85,0,0,1,.8-.08,2.82,2.82,0,0,1,.79.08c.16.06.24.14.24.26Z"/><path class="cls-3" d="M144.19,19A6,6,0,0,1,145.62,18a3.13,3.13,0,0,1,1.39-.34,2.63,2.63,0,0,1,1.61.47,2.76,2.76,0,0,1,.91,1.43,8.69,8.69,0,0,1,.29,2.51c0,.63,0,1.29-.06,2s-.09,1.36-.15,2a.72.72,0,0,1-.18.46.56.56,0,0,1-.43.16h-3.52c-.11,0-.18-.07-.23-.2a3.66,3.66,0,0,1,0-1.32q.06-.21.21-.21h2.18c.07-1.05.11-2,.11-2.73a8.7,8.7,0,0,0-.12-1.65,1.64,1.64,0,0,0-.39-.85,1.05,1.05,0,0,0-.75-.26,1.7,1.7,0,0,0-.88.29,5.55,5.55,0,0,0-1,.94l-.95,5.69a.33.33,0,0,1-.27.26,3.09,3.09,0,0,1-.81.07,3,3,0,0,1-.79-.07c-.15-.05-.21-.14-.19-.27l.89-5.4a2.2,2.2,0,0,0,0-.57,2.93,2.93,0,0,0-.19-.61l-.49-1.15a2,2,0,0,1-.15-.48.23.23,0,0,1,.05-.22.49.49,0,0,1,.28-.11,4.71,4.71,0,0,1,.64,0,4.15,4.15,0,0,1,.89.06.44.44,0,0,1,.31.28Z"/><path class="cls-3" d="M154.15,25a9.12,9.12,0,0,0,1.53.13,4.05,4.05,0,0,0,2.37-.63,3.65,3.65,0,0,0,1.36-2,11.08,11.08,0,0,0,.45-3.41v-1c0-.12.08-.2.24-.26a3.09,3.09,0,0,1,.81-.07,2.87,2.87,0,0,1,.79.07.27.27,0,0,1,.22.26v1a11.42,11.42,0,0,1-.71,4.31A5.16,5.16,0,0,1,159.09,26a6.71,6.71,0,0,1-3.53.85c-.41,0-.86,0-1.36-.08s-.89-.11-1.17-.17a1.2,1.2,0,0,1-.6-.25.75.75,0,0,1-.22-.48l-1-7.57a.33.33,0,0,1,.31-.44,3.1,3.1,0,0,1,.61,0,3.58,3.58,0,0,1,.88.07c.17.06.26.14.27.26l.44,3.26a2.68,2.68,0,0,0,1.25-.17,1.12,1.12,0,0,0,.57-.71,5.79,5.79,0,0,0,.17-1.62v-.75a.27.27,0,0,1,.21-.26,4.05,4.05,0,0,1,1.5,0,.27.27,0,0,1,.21.26v.71a7.09,7.09,0,0,1-.36,2.54,2.28,2.28,0,0,1-1.15,1.28,4.59,4.59,0,0,1-2.21.29Z"/></svg>