<svg id="Layer_1" data-name="Layer 1" xmlns="http://www.w3.org/2000/svg" viewBox="0 0 20.09 20"><title>Artboard 69 copy 2</title><path d="M3.41,14.69l-1.26-3,.07-.05,1.89-1.17c.09-.06.09,0,.09-.16a2.28,2.28,0,0,1,0-.37.13.13,0,0,0-.08-.14L2.23,8.61l-.08-.06,1.26-3,.09,0,2.17.5a.13.13,0,0,0,.14,0l.29-.28a.11.11,0,0,0,0-.12C6,4.88,5.8,4.15,5.63,3.43a.44.44,0,0,0,0-.1l3-1.26a.22.22,0,0,0,0,.08l1.17,1.9a.15.15,0,0,0,.13.07h.41a.12.12,0,0,0,.12-.07l1.18-1.9.05-.08,3,1.25a.25.25,0,0,0,0,.08c-.15.63-.29,1.27-.44,1.9,0,.1,0,.21-.07.31a.11.11,0,0,0,0,.11,2.13,2.13,0,0,1,.3.3.11.11,0,0,0,.12,0l1.4-.32.83-.19H17l1.25,3-.07,0-1.9,1.18a.14.14,0,0,0-.07.13v.42a.09.09,0,0,0,.06.1l1.91,1.19.07.05-1.25,3h-.06l-2.18-.5c-.13,0-.09,0-.18.06l-.28.27a.09.09,0,0,0,0,.1c.17.72.33,1.44.5,2.16,0,0,0,.08,0,.13l-3,1.25-.05-.07-1.17-1.89,0,0s0,0-.07,0H10c-.05,0-.07,0-.09.06-.39.63-.79,1.26-1.18,1.9a.56.56,0,0,0,0,.08l-3-1.25v0c.17-.72.33-1.43.49-2.15a.4.4,0,0,0,0-.15s-.06-.07-.1-.1L5.8,14.2a.11.11,0,0,0-.11,0l-1.14.26-1.09.25Zm7.54.5.38.61.39.63c.13.2.25.41.39.62l1.63-.68v-.05L13.65,16l-.39-1.66a.09.09,0,0,1,0-.1,9.27,9.27,0,0,0,.94-.94c.09-.1,0-.08.17-.06l2,.46h.08L17.13,12l-.07,0-1.74-1.09a.09.09,0,0,1-.05-.11c0-.14,0-.28,0-.43a5.58,5.58,0,0,0,0-.91.1.1,0,0,1,.06-.12l1.73-1.08.07,0-.68-1.64-.09,0-2,.46a.11.11,0,0,1-.12,0,7.74,7.74,0,0,0-.9-.91s-.09-.06-.1-.1a.3.3,0,0,1,0-.13c.14-.58.27-1.16.4-1.73a2.68,2.68,0,0,0,.07-.27l-1.64-.68-.06.08L11,5c-.06.09-.06.09-.16.08h0L10.3,5a6.28,6.28,0,0,0-.75,0C9.44,5,9.44,5,9.39,5L8.33,3.25l-.05-.07-1.64.67a.15.15,0,0,1,0,.06c.06.28.13.55.19.83s.19.8.28,1.2A.08.08,0,0,1,7.1,6a7,7,0,0,0-1,1A.11.11,0,0,1,6,7L4.27,6.63l-.33-.07L3.26,8.2l.07.05L5,9.3c.11.07.11.07.1.2a4.79,4.79,0,0,0,0,1.07c0,.09,0,.17,0,.25a.08.08,0,0,1,0,.07l0,0L3.33,12a.18.18,0,0,0-.07,0l.68,1.64.34-.08L6,13.18a.07.07,0,0,1,.09,0,7.56,7.56,0,0,0,1,1,.09.09,0,0,1,0,.1c-.15.67-.31,1.34-.47,2a.2.2,0,0,1,0,.07l1.64.68,1.17-1.86c.25,0,.5,0,.74,0S10.69,15.2,11,15.19Z"/><path d="M10.19,13.08a3,3,0,1,1,3-3A3,3,0,0,1,10.19,13.08Zm2.09-3a2.09,2.09,0,1,0-2.09,2.09A2.07,2.07,0,0,0,12.28,10.11Z"/></svg>